<svg id="Group_72192" data-name="Group 72192" xmlns="http://www.w3.org/2000/svg" width="45" height="45" viewBox="0 0 45 45">
  <circle id="Ellipse_1210" data-name="Ellipse 1210" cx="22.5" cy="22.5" r="22.5" fill="#62195d"/>
  <path id="Icon_map-food" data-name="Icon map-food" d="M21.724,8.083,20,22.527H14.17L12.451,8.011h7.116l1.406-5.187.8.257L20.421,8.073l1.3.011Zm-10.1,8.356s.218-1.873-2.8-1.873H4.009c-3.018,0-2.8,1.873-2.8,1.873H11.627ZM1.2,20.654s-.214,1.873,2.8,1.873H8.823c3.022,0,2.8-1.873,2.8-1.873Zm9.97-.936a1.058,1.058,0,0,0,.894-1.17,1.057,1.057,0,0,0-.894-1.171H1.615A1.059,1.059,0,0,0,.72,18.547a1.06,1.06,0,0,0,.895,1.17h9.56Z" transform="translate(11.28 10.176)" fill="#fff"/>
</svg>
