<?xml version="1.0" encoding="UTF-8"?><svg id="Layer_1" xmlns="http://www.w3.org/2000/svg" viewBox="0 0 24 24"><defs><style>.cls-1{fill:#fff;}.cls-2{fill:#1f79ba;}</style></defs><path class="cls-1" d="m21.66,10.25L12.66,2.25c-.38-.34-.95-.34-1.33,0L2.34,10.25c-.41.37-.45,1-.08,1.41.37.41,1,.45,1.41.08l.34-.3v9.55c0,.55.45,1,1,1h14c.55,0,1-.45,1-1h0v-9.55l.34.3c.41.37,1.04.33,1.41-.08.37-.41.33-1.04-.08-1.41h0Zm-12.48,9.75c.54-1.56,2.24-2.38,3.8-1.83.86.3,1.53.97,1.83,1.83h-5.63Zm1.32-5.5c0-.83.67-1.5,1.5-1.5s1.5.67,1.5,1.5-.67,1.5-1.5,1.5c-.83,0-1.5-.67-1.5-1.5Zm7.5,5.5h-1.1c-.28-1.34-1.1-2.51-2.26-3.23.55-.63.86-1.44.86-2.27,0-1.93-1.57-3.5-3.5-3.5s-3.5,1.57-3.5,3.5h0c0,.84.31,1.64.86,2.27-1.16.72-1.98,1.89-2.26,3.23h-1.1v-10.33l6-5.33,6,5.33v10.33Z"/><g><g><path class="cls-1" d="m7,7.33H3c-.28,0-.5-.22-.5-.5h0v-1.5c0-1.38,1.12-2.5,2.5-2.5s2.5,1.12,2.5,2.5v1.5c0,.28-.22.5-.5.5h0Zm-3.5-1h3v-1c0-.83-.67-1.5-1.5-1.5s-1.5.67-1.5,1.5v1Z"/><path class="cls-2" d="m7,7.46H3c-.34,0-.62-.28-.62-.62v-1.5c0-1.45,1.18-2.62,2.62-2.62s2.62,1.18,2.62,2.62v1.5c0,.34-.28.62-.62.62Zm-2-4.5c-1.31,0-2.38,1.07-2.38,2.38v1.5c0,.21.17.38.38.38h4c.21,0,.38-.17.38-.38v-1.5c0-1.31-1.07-2.38-2.38-2.38Zm1.62,3.5h-3.25v-1.12c0-.9.73-1.62,1.62-1.62s1.62.73,1.62,1.62v1.12Zm-3-.25h2.75v-.88c0-.76-.62-1.38-1.38-1.38s-1.38.62-1.38,1.38v.88Z"/></g><g><rect class="cls-1" x="1" y="6.33" width="8" height="6.5" rx="1.5" ry="1.5"/><path class="cls-2" d="m7.5,12.96H2.5c-.9,0-1.62-.73-1.62-1.62v-3.5c0-.9.73-1.62,1.62-1.62h5c.9,0,1.62.73,1.62,1.62v3.5c0,.9-.73,1.62-1.62,1.62ZM2.5,6.46c-.76,0-1.38.62-1.38,1.38v3.5c0,.76.62,1.38,1.38,1.38h5c.76,0,1.38-.62,1.38-1.38v-3.5c0-.76-.62-1.38-1.38-1.38H2.5Z"/></g></g></svg>