<?xml version="1.0" encoding="UTF-8"?><svg id="Layer_1" xmlns="http://www.w3.org/2000/svg" viewBox="0 0 24 24"><defs><style>.cls-1{fill:#fff;}.cls-2{fill:#1f79ba;}</style></defs><path class="cls-1" d="m14,11h-1v-1c0-.55-.45-1-1-1s-1,.45-1,1v1h-1c-.55,0-1,.45-1,1s.45,1,1,1h1v1c0,.55.45,1,1,1s1-.45,1-1v-1h1c.55,0,1-.45,1-1s-.45-1-1-1Zm5.63-7.35c-.23-.19-.54-.26-.84-.2-2.16.46-4.41,0-6.22-1.27-.34-.24-.8-.24-1.14,0-1.81,1.27-4.06,1.72-6.22,1.27-.54-.11-1.07.23-1.18.77-.01.07-.02.14-.02.21v7.46c0,2.91,1.41,5.63,3.77,7.32l3.65,2.61c.35.25.81.25,1.16,0l3.65-2.61c2.36-1.69,3.77-4.42,3.77-7.32v-7.46c0-.3-.14-.59-.37-.78Zm-1.63,8.23c0,2.26-1.09,4.38-2.93,5.7l-3.07,2.19-3.07-2.19c-1.84-1.32-2.93-3.44-2.93-5.7v-6.3c2.1.18,4.2-.3,6-1.39,1.8,1.09,3.9,1.57,6,1.39v6.3Z"/><g><g><path class="cls-1" d="m7,5.94H3c-.28,0-.5-.22-.5-.5h0v-1.5c0-1.38,1.12-2.5,2.5-2.5s2.5,1.12,2.5,2.5v1.5c0,.28-.22.5-.5.5h0Zm-3.5-1h3v-1c0-.83-.67-1.5-1.5-1.5s-1.5.67-1.5,1.5v1Z"/><path class="cls-2" d="m7,6.07H3c-.34,0-.62-.28-.62-.62v-1.5c0-1.45,1.18-2.62,2.62-2.62s2.62,1.18,2.62,2.62v1.5c0,.34-.28.62-.62.62ZM5,1.57c-1.31,0-2.38,1.07-2.38,2.38v1.5c0,.21.17.38.38.38h4c.21,0,.38-.17.38-.38v-1.5c0-1.31-1.07-2.38-2.38-2.38Zm1.62,3.5h-3.25v-1.12c0-.9.73-1.62,1.62-1.62s1.62.73,1.62,1.62v1.12Zm-3-.25h2.75v-.88c0-.76-.62-1.38-1.38-1.38s-1.38.62-1.38,1.38v.88Z"/></g><g><rect class="cls-1" x="1" y="4.94" width="8" height="6.5" rx="1.5" ry="1.5"/><path class="cls-2" d="m7.5,11.57H2.5c-.9,0-1.62-.73-1.62-1.62v-3.5c0-.9.73-1.62,1.62-1.62h5c.9,0,1.62.73,1.62,1.62v3.5c0,.9-.73,1.62-1.62,1.62ZM2.5,5.07c-.76,0-1.38.62-1.38,1.38v3.5c0,.76.62,1.38,1.38,1.38h5c.76,0,1.38-.62,1.38-1.38v-3.5c0-.76-.62-1.38-1.38-1.38H2.5Z"/></g></g></svg>