<?xml version="1.0" encoding="UTF-8"?><svg id="Layer_1" xmlns="http://www.w3.org/2000/svg" viewBox="0 0 24 24"><defs><style>.cls-1{fill:#fff;}.cls-2{fill:#1f79ba;}</style></defs><path class="cls-2" d="m9,12h-2c-.55,0-1,.45-1,1s.45,1,1,1h2c.55,0,1-.45,1-1s-.45-1-1-1Zm-1-2h4c.55,0,1-.45,1-1s-.45-1-1-1h-4c-.55,0-1,.45-1,1s.45,1,1,1Zm1,6h-2c-.55,0-1,.45-1,1s.45,1,1,1h2c.55,0,1-.45,1-1s-.45-1-1-1Zm12-4h-3V3c0-.36-.19-.69-.5-.87-.31-.18-.69-.18-1,0l-3,1.72-3-1.72c-.31-.18-.69-.18-1,0l-3,1.72-3-1.72c-.31-.18-.69-.18-1,0-.31.18-.5.51-.5.87v16c0,1.66,1.34,3,3,3h14c1.66,0,3-1.34,3-3v-6c0-.55-.45-1-1-1ZM5,20c-.55,0-1-.45-1-1V4.73l2,1.14c.31.16.69.16,1,0l3-1.72,3,1.72c.31.16.69.16,1,0l2-1.14v14.27c0,.34.06.68.18,1H5Zm15-1c0,.55-.45,1-1,1s-1-.45-1-1v-5h2v5Zm-6.44-2.83c-.06-.04-.12-.07-.18-.09-.06-.03-.12-.05-.19-.06-.33-.07-.66.04-.9.27-.18.19-.29.45-.29.71,0,.13.02.26.07.38.05.12.13.23.22.33.1.09.21.16.33.21.24.11.52.11.76,0,.12-.05.23-.12.33-.21.19-.19.29-.44.29-.71,0-.26-.11-.52-.29-.71-.05-.04-.1-.08-.15-.12Zm.14-3.88c-.4-.39-1.03-.38-1.41.02-.09.09-.16.2-.21.31-.21.51.03,1.1.54,1.3.12.05.25.07.38.08.55,0,1-.45,1-1,0-.13-.03-.26-.08-.38-.05-.12-.12-.24-.22-.33Z"/><g><g><path class="cls-2" d="m7,7.78H3c-.28,0-.5-.22-.5-.5h0v-1.5c0-1.38,1.12-2.5,2.5-2.5s2.5,1.12,2.5,2.5v1.5c0,.28-.22.5-.5.5h0Zm-3.5-1h3v-1c0-.83-.67-1.5-1.5-1.5s-1.5.67-1.5,1.5v1Z"/><path class="cls-1" d="m7,7.9H3c-.34,0-.62-.28-.62-.62v-1.5c0-1.45,1.18-2.62,2.62-2.62s2.62,1.18,2.62,2.62v1.5c0,.34-.28.62-.62.62Zm-2-4.5c-1.31,0-2.38,1.07-2.38,2.38v1.5c0,.21.17.38.38.38h4c.21,0,.38-.17.38-.38v-1.5c0-1.31-1.07-2.38-2.38-2.38Zm1.62,3.5h-3.25v-1.12c0-.9.73-1.62,1.62-1.62s1.62.73,1.62,1.62v1.12Zm-3-.25h2.75v-.88c0-.76-.62-1.38-1.38-1.38s-1.38.62-1.38,1.38v.88Z"/></g><g><rect class="cls-2" x="1" y="6.78" width="8" height="6.5" rx="1.5" ry="1.5"/><path class="cls-1" d="m7.5,13.4H2.5c-.9,0-1.62-.73-1.62-1.62v-3.5c0-.9.73-1.62,1.62-1.62h5c.9,0,1.62.73,1.62,1.62v3.5c0,.9-.73,1.62-1.62,1.62ZM2.5,6.9c-.76,0-1.38.62-1.38,1.38v3.5c0,.76.62,1.38,1.38,1.38h5c.76,0,1.38-.62,1.38-1.38v-3.5c0-.76-.62-1.38-1.38-1.38H2.5Z"/></g></g></svg>