<?xml version="1.0" encoding="UTF-8"?><svg id="Layer_1" xmlns="http://www.w3.org/2000/svg" viewBox="0 0 24 24"><defs><style>.cls-1{fill:#1f79ba;}</style></defs><path class="cls-1" d="m21.66,10.25L12.66,2.25c-.38-.34-.95-.34-1.33,0L2.34,10.25c-.41.37-.45,1-.08,1.41.37.41,1,.45,1.41.08l.34-.3v9.55c0,.55.45,1,1,1h14c.55,0,1-.45,1-1h0v-9.55l.34.3c.41.37,1.04.33,1.41-.08.37-.41.33-1.04-.08-1.41h0Zm-12.48,9.75c.54-1.56,2.24-2.38,3.8-1.83.86.3,1.53.97,1.83,1.83h-5.63Zm1.32-5.5c0-.83.67-1.5,1.5-1.5s1.5.67,1.5,1.5-.67,1.5-1.5,1.5c-.83,0-1.5-.67-1.5-1.5Zm7.5,5.5h-1.1c-.28-1.34-1.1-2.51-2.26-3.23.55-.63.86-1.44.86-2.27,0-1.93-1.57-3.5-3.5-3.5s-3.5,1.57-3.5,3.5h0c0,.84.31,1.64.86,2.27-1.16.72-1.98,1.89-2.26,3.23h-1.1v-10.33l6-5.33,6,5.33v10.33Z"/></svg>