<?xml version="1.0" encoding="UTF-8"?><svg id="Layer_1" xmlns="http://www.w3.org/2000/svg" viewBox="0 0 24 24"><defs><style>.cls-1{fill:#1f79ba;}</style></defs><path class="cls-1" d="m14,11h-1v-1c0-.55-.45-1-1-1s-1,.45-1,1v1h-1c-.55,0-1,.45-1,1s.45,1,1,1h1v1c0,.55.45,1,1,1s1-.45,1-1v-1h1c.55,0,1-.45,1-1s-.45-1-1-1Zm5.63-7.35c-.23-.19-.54-.26-.84-.2-2.16.46-4.41,0-6.22-1.27-.34-.24-.8-.24-1.14,0-1.81,1.27-4.06,1.72-6.22,1.27-.54-.11-1.07.23-1.18.77-.01.07-.02.14-.02.21v7.46c0,2.91,1.41,5.63,3.77,7.32l3.65,2.61c.35.25.81.25,1.16,0l3.65-2.61c2.36-1.69,3.77-4.42,3.77-7.32v-7.46c0-.3-.14-.59-.37-.78Zm-1.63,8.23c0,2.26-1.09,4.38-2.93,5.7l-3.07,2.19-3.07-2.19c-1.84-1.32-2.93-3.44-2.93-5.7v-6.3c2.1.18,4.2-.3,6-1.39,1.8,1.09,3.9,1.57,6,1.39v6.3Z"/></svg>