<?xml version="1.0" encoding="UTF-8"?><svg id="Layer_1" xmlns="http://www.w3.org/2000/svg" viewBox="0 0 24 24"><defs><style>.cls-1{fill:#fff;}.cls-2{fill:#1f79ba;}</style></defs><path class="cls-1" d="m12,2.01c-5.52.01-9.99,4.5-9.98,10.02,0,2.5.94,4.9,2.63,6.74h0c3.74,4.06,10.07,4.31,14.13.57.2-.18.39-.37.57-.57h0c3.73-4.07,3.46-10.4-.61-14.13-1.84-1.69-4.24-2.63-6.74-2.63Zm0,18c-2.07,0-4.06-.81-5.55-2.25,1.26-3.07,4.76-4.53,7.83-3.27,1.48.61,2.66,1.79,3.27,3.27-1.49,1.44-3.48,2.25-5.55,2.25Zm-2-10c0-1.1.9-2,2-2s2,.9,2,2-.9,2-2,2-2-.9-2-2Zm8.91,6c-.89-1.53-2.27-2.72-3.91-3.38,1.46-1.66,1.3-4.18-.35-5.65-1.66-1.46-4.18-1.3-5.65.35-1.33,1.51-1.33,3.78,0,5.29-1.64.66-3.02,1.85-3.91,3.38-.71-1.21-1.09-2.59-1.09-4,0-4.42,3.58-8,8-8s8,3.58,8,8c0,1.41-.38,2.79-1.09,4Z"/><g><g><path class="cls-1" d="m7,7.93H3c-.28,0-.5-.22-.5-.5h0v-1.5c0-1.38,1.12-2.5,2.5-2.5s2.5,1.12,2.5,2.5v1.5c0,.28-.22.5-.5.5h0Zm-3.5-1h3v-1c0-.83-.67-1.5-1.5-1.5s-1.5.67-1.5,1.5v1Z"/><path class="cls-2" d="m7,8.06H3c-.34,0-.62-.28-.62-.62v-1.5c0-1.45,1.18-2.62,2.62-2.62s2.62,1.18,2.62,2.62v1.5c0,.34-.28.62-.62.62Zm-2-4.5c-1.31,0-2.38,1.07-2.38,2.38v1.5c0,.21.17.38.38.38h4c.21,0,.38-.17.38-.38v-1.5c0-1.31-1.07-2.38-2.38-2.38Zm1.62,3.5h-3.25v-1.12c0-.9.73-1.62,1.62-1.62s1.62.73,1.62,1.62v1.12Zm-3-.25h2.75v-.88c0-.76-.62-1.38-1.38-1.38s-1.38.62-1.38,1.38v.88Z"/></g><g><rect class="cls-1" x="1" y="6.93" width="8" height="6.5" rx="1.5" ry="1.5"/><path class="cls-2" d="m7.5,13.56H2.5c-.9,0-1.62-.73-1.62-1.62v-3.5c0-.9.73-1.62,1.62-1.62h5c.9,0,1.62.73,1.62,1.62v3.5c0,.9-.73,1.62-1.62,1.62ZM2.5,7.06c-.76,0-1.38.62-1.38,1.38v3.5c0,.76.62,1.38,1.38,1.38h5c.76,0,1.38-.62,1.38-1.38v-3.5c0-.76-.62-1.38-1.38-1.38H2.5Z"/></g></g></svg>