<?xml version="1.0" encoding="UTF-8"?><svg id="Layer_1" xmlns="http://www.w3.org/2000/svg" viewBox="0 0 24 24"><defs><style>.cls-1{fill:#f5f6f9;}</style></defs><path class="cls-1" d="m21,9.5c.55,0,1-.45,1-1h0v-3c0-.43-.28-.81-.68-.95L12.32,1.55c-.21-.07-.43-.07-.63,0L2.68,4.55c-.41.14-.68.52-.68.95v3c0,.55.45,1,1,1h1v7.18c-1.2.42-2,1.55-2,2.82v2c0,.55.45,1,1,1h18c.55,0,1-.45,1-1h0v-2c0-1.27-.8-2.39-2-2.82v-7.18h1Zm-1,11H4v-1c0-.55.45-1,1-1h14c.55,0,1,.45,1,1v1Zm-14-4v-7h2v7h-2Zm4,0v-7h4v7h-4Zm6,0v-7h2v7h-2ZM4,7.5v-1.28l8-2.67,8,2.67v1.28H4Z"/></svg>