<?xml version="1.0" encoding="UTF-8"?><svg id="Layer_1" xmlns="http://www.w3.org/2000/svg" viewBox="0 0 24 24"><defs><style>.cls-1{fill:#fff;}.cls-2{fill:#1f79ba;}</style></defs><path class="cls-2" d="m12.71,17.29s-.1-.09-.16-.12c-.05-.04-.11-.07-.17-.09-.06-.03-.12-.05-.19-.06-.19-.04-.39-.02-.57.06-.25.09-.45.29-.54.54-.06.12-.08.25-.08.38,0,.13.02.26.07.38.06.12.13.23.22.33.19.19.44.29.71.29.13,0,.26-.02.38-.08.12-.05.23-.12.33-.21.19-.19.29-.44.29-.71,0-.13-.03-.26-.08-.38-.05-.12-.12-.23-.21-.33Zm-4.16-4.12c-.05-.04-.11-.07-.17-.09-.06-.04-.12-.06-.19-.08-.13-.03-.26-.03-.39,0l-.18.06-.18.09-.15.12c-.19.2-.29.46-.29.73,0,.27.1.52.29.71.1.09.21.16.33.21.51.21,1.1-.03,1.3-.54.05-.12.07-.25.08-.38,0-.26-.11-.52-.29-.71l-.16-.12Zm.16,4.12c-.1-.09-.21-.16-.33-.21-.18-.08-.38-.11-.58-.08l-.18.06c-.06.02-.12.05-.18.09-.05.04-.1.08-.15.12-.09.1-.16.21-.21.33-.11.24-.11.52,0,.76.05.12.12.23.21.33.19.19.44.31.71.31.13,0,.26-.02.38-.08.12-.05.23-.12.33-.21.09-.1.16-.21.21-.33.11-.24.11-.52,0-.76-.05-.12-.12-.23-.21-.33Zm2.91-4.21c-.12.05-.23.12-.33.21-.18.19-.29.45-.29.71,0,.55.45,1,1,1,.13,0,.26-.03.38-.08.12-.05.23-.12.33-.21.19-.19.29-.44.29-.71,0-.26-.11-.52-.29-.71-.29-.28-.72-.37-1.09-.21Zm5.09,4.21c-.1-.09-.21-.16-.33-.21-.37-.16-.8-.07-1.09.21-.09.1-.16.21-.21.33-.11.24-.11.52,0,.76.05.12.12.23.21.33.19.19.44.29.71.29.13,0,.26-.02.38-.08.12-.05.23-.12.33-.21.28-.29.37-.72.21-1.09-.05-.12-.12-.23-.21-.33Zm-.71-12.29h-8c-.55,0-1,.45-1,1v4c0,.55.45,1,1,1h8c.55,0,1-.45,1-1v-4c0-.55-.45-1-1-1Zm-1,4h-6v-2h6v2Zm3-8H6c-1.66,0-3,1.34-3,3v16c0,1.66,1.34,3,3,3h12c1.66,0,3-1.34,3-3V4c0-1.66-1.34-3-3-3Zm1,19c0,.55-.45,1-1,1H6c-.55,0-1-.45-1-1V4c0-.55.45-1,1-1h12c.55,0,1,.45,1,1v16Zm-2.45-6.83c-.05-.04-.11-.07-.17-.09-.06-.03-.12-.05-.19-.06-.13-.03-.26-.03-.39,0l-.18.06-.18.09-.15.12c-.18.19-.29.45-.29.71,0,.55.45,1,1,1,.13,0,.26-.03.38-.08.12-.05.23-.12.33-.21.19-.19.29-.44.29-.71,0-.26-.11-.52-.29-.71l-.16-.12Z"/><g><g><path class="cls-2" d="m7,5.34H3c-.28,0-.5-.22-.5-.5h0v-1.5c0-1.38,1.12-2.5,2.5-2.5s2.5,1.12,2.5,2.5v1.5c0,.28-.22.5-.5.5h0Zm-3.5-1h3v-1c0-.83-.67-1.5-1.5-1.5s-1.5.67-1.5,1.5v1Z"/><path class="cls-1" d="m7,5.47H3c-.34,0-.62-.28-.62-.62v-1.5c0-1.45,1.18-2.62,2.62-2.62s2.62,1.18,2.62,2.62v1.5c0,.34-.28.62-.62.62ZM5,.97c-1.31,0-2.38,1.07-2.38,2.38v1.5c0,.21.17.38.38.38h4c.21,0,.38-.17.38-.38v-1.5c0-1.31-1.07-2.38-2.38-2.38Zm1.62,3.5h-3.25v-1.12c0-.9.73-1.62,1.62-1.62s1.62.73,1.62,1.62v1.12Zm-3-.25h2.75v-.88c0-.76-.62-1.38-1.38-1.38s-1.38.62-1.38,1.38v.88Z"/></g><g><rect class="cls-2" x="1" y="4.34" width="8" height="6.5" rx="1.5" ry="1.5"/><path class="cls-1" d="m7.5,10.97H2.5c-.9,0-1.62-.73-1.62-1.62v-3.5c0-.9.73-1.62,1.62-1.62h5c.9,0,1.62.73,1.62,1.62v3.5c0,.9-.73,1.62-1.62,1.62ZM2.5,4.47c-.76,0-1.38.62-1.38,1.38v3.5c0,.76.62,1.38,1.38,1.38h5c.76,0,1.38-.62,1.38-1.38v-3.5c0-.76-.62-1.38-1.38-1.38H2.5Z"/></g></g></svg>