<?xml version="1.0" encoding="UTF-8"?><svg id="Layer_1" xmlns="http://www.w3.org/2000/svg" viewBox="0 0 24 24"><defs><style>.cls-1{fill:#1f79ba;}</style></defs><path class="cls-1" d="m12.71,17.29s-.1-.09-.16-.12c-.05-.04-.11-.07-.17-.09-.06-.03-.12-.05-.19-.06-.19-.04-.39-.02-.57.06-.25.09-.45.29-.54.54-.06.12-.08.25-.08.38,0,.13.02.26.07.38.06.12.13.23.22.33.19.19.44.29.71.29.13,0,.26-.02.38-.08.12-.05.23-.12.33-.21.19-.19.29-.44.29-.71,0-.13-.03-.26-.08-.38-.05-.12-.12-.23-.21-.33Zm-4.16-4.12c-.05-.04-.11-.07-.17-.09-.06-.04-.12-.06-.19-.08-.13-.03-.26-.03-.39,0l-.18.06-.18.09-.15.12c-.19.2-.29.46-.29.73,0,.27.1.52.29.71.1.09.21.16.33.21.51.21,1.1-.03,1.3-.54.05-.12.07-.25.08-.38,0-.26-.11-.52-.29-.71l-.16-.12Zm.16,4.12c-.1-.09-.21-.16-.33-.21-.18-.08-.38-.11-.58-.08l-.18.06c-.06.02-.12.05-.18.09-.05.04-.1.08-.15.12-.09.1-.16.21-.21.33-.11.24-.11.52,0,.76.05.12.12.23.21.33.19.19.44.31.71.31.13,0,.26-.02.38-.08.12-.05.23-.12.33-.21.09-.1.16-.21.21-.33.11-.24.11-.52,0-.76-.05-.12-.12-.23-.21-.33Zm2.91-4.21c-.12.05-.23.12-.33.21-.18.19-.29.45-.29.71,0,.55.45,1,1,1,.13,0,.26-.03.38-.08.12-.05.23-.12.33-.21.19-.19.29-.44.29-.71,0-.26-.11-.52-.29-.71-.29-.28-.72-.37-1.09-.21Zm5.09,4.21c-.1-.09-.21-.16-.33-.21-.37-.16-.8-.07-1.09.21-.09.1-.16.21-.21.33-.11.24-.11.52,0,.76.05.12.12.23.21.33.19.19.44.29.71.29.13,0,.26-.02.38-.08.12-.05.23-.12.33-.21.28-.29.37-.72.21-1.09-.05-.12-.12-.23-.21-.33Zm-.71-12.29h-8c-.55,0-1,.45-1,1v4c0,.55.45,1,1,1h8c.55,0,1-.45,1-1v-4c0-.55-.45-1-1-1Zm-1,4h-6v-2h6v2Zm3-8H6c-1.66,0-3,1.34-3,3v16c0,1.66,1.34,3,3,3h12c1.66,0,3-1.34,3-3V4c0-1.66-1.34-3-3-3Zm1,19c0,.55-.45,1-1,1H6c-.55,0-1-.45-1-1V4c0-.55.45-1,1-1h12c.55,0,1,.45,1,1v16Zm-2.45-6.83c-.05-.04-.11-.07-.17-.09-.06-.03-.12-.05-.19-.06-.13-.03-.26-.03-.39,0l-.18.06-.18.09-.15.12c-.18.19-.29.45-.29.71,0,.55.45,1,1,1,.13,0,.26-.03.38-.08.12-.05.23-.12.33-.21.19-.19.29-.44.29-.71,0-.26-.11-.52-.29-.71l-.16-.12Z"/></svg>