<?xml version="1.0" encoding="UTF-8"?><svg id="Layer_1" xmlns="http://www.w3.org/2000/svg" viewBox="0 0 24 24"><defs><style>.cls-1{fill:#f5f6f9;}</style></defs><path class="cls-1" d="m9,12h-2c-.55,0-1,.45-1,1s.45,1,1,1h2c.55,0,1-.45,1-1s-.45-1-1-1Zm-1-2h4c.55,0,1-.45,1-1s-.45-1-1-1h-4c-.55,0-1,.45-1,1s.45,1,1,1Zm1,6h-2c-.55,0-1,.45-1,1s.45,1,1,1h2c.55,0,1-.45,1-1s-.45-1-1-1Zm12-4h-3V3c0-.36-.19-.69-.5-.87-.31-.18-.69-.18-1,0l-3,1.72-3-1.72c-.31-.18-.69-.18-1,0l-3,1.72-3-1.72c-.31-.18-.69-.18-1,0-.31.18-.5.51-.5.87v16c0,1.66,1.34,3,3,3h14c1.66,0,3-1.34,3-3v-6c0-.55-.45-1-1-1ZM5,20c-.55,0-1-.45-1-1V4.73l2,1.14c.31.16.69.16,1,0l3-1.72,3,1.72c.31.16.69.16,1,0l2-1.14v14.27c0,.34.06.68.18,1H5Zm15-1c0,.55-.45,1-1,1s-1-.45-1-1v-5h2v5Zm-6.44-2.83c-.06-.04-.12-.07-.18-.09-.06-.03-.12-.05-.19-.06-.33-.07-.66.04-.9.27-.18.19-.29.45-.29.71,0,.13.02.26.07.38.05.12.13.23.22.33.1.09.21.16.33.21.24.11.52.11.76,0,.12-.05.23-.12.33-.21.19-.19.29-.44.29-.71,0-.26-.11-.52-.29-.71-.05-.04-.1-.08-.15-.12Zm.14-3.88c-.4-.39-1.03-.38-1.41.02-.09.09-.16.2-.21.31-.21.51.03,1.1.54,1.3.12.05.25.07.38.08.55,0,1-.45,1-1,0-.13-.03-.26-.08-.38-.05-.12-.12-.24-.22-.33Z"/></svg>