<?xml version="1.0" encoding="utf-8"?>
<!-- Generator: Adobe Illustrator 27.1.1, SVG Export Plug-In . SVG Version: 6.00 Build 0)  -->
<svg version="1.1" id="Layer_1" xmlns="http://www.w3.org/2000/svg" xmlns:xlink="http://www.w3.org/1999/xlink" x="0px" y="0px"
	 viewBox="0 0 24 24" style="enable-background:new 0 0 24 24;" xml:space="preserve">
<style type="text/css">
	.st0{fill:#F5F6F9;}
	.st1{fill:#FFFFFF;}
	.st2{fill:#1F79BA;}
	.st3{fill:#FFFFFF;stroke:#1F79BA;stroke-width:0.25;stroke-miterlimit:10;}
	.st4{clip-path:url(#SVGID_00000022522251292914703540000008804820465451421625_);}
	.st5{fill:#1F79BA;stroke:#FFFFFF;stroke-width:0.25;stroke-miterlimit:10;}
</style>
<path class="st0" d="M129.9-205.2c-0.1-0.2-0.3-0.4-0.5-0.5c-0.1-0.1-0.2-0.1-0.4-0.1h-5c-0.6,0-1,0.4-1,1c0,0.6,0.4,1,1,1h2.6
	l-5.6,5.6l-3.3-3.3c-0.4-0.4-1-0.4-1.4,0c0,0,0,0,0,0l-6,6c-0.4,0.4-0.4,1,0,1.4c0,0,0,0,0,0c0.4,0.4,1,0.4,1.4,0c0,0,0,0,0,0
	l5.3-5.3l3.3,3.3c0.4,0.4,1,0.4,1.4,0c0,0,0,0,0,0l6.3-6.3v2.6c0,0.6,0.4,1,1,1c0.6,0,1-0.4,1-1v-5C130-204.9,130-205.1,129.9-205.2
	z"/>
<path class="st0" d="M122-170.7h-1v-1c0-0.6-0.4-1-1-1s-1,0.4-1,1v1h-1c-0.6,0-1,0.4-1,1s0.4,1,1,1h1v1c0,0.6,0.4,1,1,1s1-0.4,1-1
	v-1h1c0.6,0,1-0.4,1-1S122.6-170.7,122-170.7z M127.6-178c-0.2-0.2-0.5-0.3-0.8-0.2c-2.2,0.5-4.4,0-6.2-1.3c-0.3-0.2-0.8-0.2-1.1,0
	c-1.8,1.3-4.1,1.7-6.2,1.3c-0.5-0.1-1.1,0.2-1.2,0.8c0,0.1,0,0.1,0,0.2v7.5c0,2.9,1.4,5.6,3.8,7.3l3.7,2.6c0.3,0.2,0.8,0.2,1.2,0
	l3.7-2.6c2.4-1.7,3.8-4.4,3.8-7.3v-7.5C128-177.5,127.9-177.8,127.6-178z M126-169.8c0,2.3-1.1,4.4-2.9,5.7l-3.1,2.2l-3.1-2.2
	c-1.8-1.3-2.9-3.4-2.9-5.7v-6.3c2.1,0.2,4.2-0.3,6-1.4c1.8,1.1,3.9,1.6,6,1.4V-169.8z"/>
<path class="st0" d="M120.7-133.2c0,0-0.1-0.1-0.2-0.1c-0.1,0-0.1-0.1-0.2-0.1c-0.1,0-0.1-0.1-0.2-0.1c-0.2,0-0.4,0-0.6,0.1
	c-0.3,0.1-0.4,0.3-0.5,0.5c-0.1,0.1-0.1,0.2-0.1,0.4c0,0.1,0,0.3,0.1,0.4c0.1,0.1,0.1,0.2,0.2,0.3c0.2,0.2,0.4,0.3,0.7,0.3
	c0.1,0,0.3,0,0.4-0.1c0.1-0.1,0.2-0.1,0.3-0.2c0.2-0.2,0.3-0.4,0.3-0.7c0-0.1,0-0.3-0.1-0.4C120.9-133,120.8-133.1,120.7-133.2z
	 M116.6-137.3c-0.1,0-0.1-0.1-0.2-0.1c-0.1,0-0.1-0.1-0.2-0.1c-0.1,0-0.3,0-0.4,0l-0.2,0.1l-0.2,0.1l-0.2,0.1
	c-0.2,0.2-0.3,0.5-0.3,0.7c0,0.3,0.1,0.5,0.3,0.7c0.1,0.1,0.2,0.2,0.3,0.2c0.5,0.2,1.1,0,1.3-0.5c0-0.1,0.1-0.2,0.1-0.4
	c0-0.3-0.1-0.5-0.3-0.7L116.6-137.3z M116.7-133.2c-0.1-0.1-0.2-0.2-0.3-0.2c-0.2-0.1-0.4-0.1-0.6-0.1l-0.2,0.1
	c-0.1,0-0.1,0.1-0.2,0.1c-0.1,0-0.1,0.1-0.2,0.1c-0.1,0.1-0.2,0.2-0.2,0.3c-0.1,0.2-0.1,0.5,0,0.8c0.1,0.1,0.1,0.2,0.2,0.3
	c0.2,0.2,0.4,0.3,0.7,0.3c0.1,0,0.3,0,0.4-0.1c0.1-0.1,0.2-0.1,0.3-0.2c0.1-0.1,0.2-0.2,0.2-0.3c0.1-0.2,0.1-0.5,0-0.8
	C116.9-133,116.8-133.1,116.7-133.2z M119.6-137.4c-0.1,0-0.2,0.1-0.3,0.2c-0.2,0.2-0.3,0.4-0.3,0.7c0,0.6,0.5,1,1,1
	c0.1,0,0.3,0,0.4-0.1c0.1-0.1,0.2-0.1,0.3-0.2c0.2-0.2,0.3-0.4,0.3-0.7c0-0.3-0.1-0.5-0.3-0.7C120.4-137.5,120-137.6,119.6-137.4z
	 M124.7-133.2c-0.1-0.1-0.2-0.2-0.3-0.2c-0.4-0.2-0.8-0.1-1.1,0.2c-0.1,0.1-0.2,0.2-0.2,0.3c-0.1,0.2-0.1,0.5,0,0.8
	c0.1,0.1,0.1,0.2,0.2,0.3c0.2,0.2,0.4,0.3,0.7,0.3c0.1,0,0.3,0,0.4-0.1c0.1-0.1,0.2-0.1,0.3-0.2c0.3-0.3,0.4-0.7,0.2-1.1
	C124.9-133,124.8-133.1,124.7-133.2z M124-145.5h-8c-0.6,0-1,0.4-1,1v4c0,0.6,0.4,1,1,1h8c0.6,0,1-0.4,1-1v-4
	C125-145,124.6-145.5,124-145.5z M123-141.5h-6v-2h6V-141.5z M126-149.5h-12c-1.7,0-3,1.3-3,3v16c0,1.7,1.3,3,3,3h12
	c1.7,0,3-1.3,3-3v-16C129-148.1,127.7-149.5,126-149.5z M127-130.5c0,0.6-0.4,1-1,1h-12c-0.6,0-1-0.4-1-1v-16c0-0.6,0.4-1,1-1h12
	c0.6,0,1,0.4,1,1V-130.5z M124.6-137.3c-0.1,0-0.1-0.1-0.2-0.1c-0.1,0-0.1-0.1-0.2-0.1c-0.1,0-0.3,0-0.4,0l-0.2,0.1l-0.2,0.1
	l-0.1,0.1c-0.2,0.2-0.3,0.4-0.3,0.7c0,0.6,0.5,1,1,1c0.1,0,0.3,0,0.4-0.1c0.1-0.1,0.2-0.1,0.3-0.2c0.2-0.2,0.3-0.4,0.3-0.7
	c0-0.3-0.1-0.5-0.3-0.7L124.6-137.3z"/>
<path class="st0" d="M129-110.8c0.6,0,1-0.4,1-1c0,0,0,0,0,0v-3c0-0.4-0.3-0.8-0.7-0.9l-9-3c-0.2-0.1-0.4-0.1-0.6,0l-9,3
	c-0.4,0.1-0.7,0.5-0.7,0.9v3c0,0.6,0.4,1,1,1c0,0,0,0,0,0h1v7.2c-1.2,0.4-2,1.5-2,2.8v2c0,0.6,0.4,1,1,1c0,0,0,0,0,0h18
	c0.6,0,1-0.4,1-1c0,0,0,0,0,0v-2c0-1.3-0.8-2.4-2-2.8v-7.2H129z M128-99.8h-16v-1c0-0.6,0.4-1,1-1h14c0.6,0,1,0.4,1,1V-99.8z
	 M114-103.8v-7h2v7H114z M118-103.8v-7h4v7H118z M124-103.8v-7h2v7H124z M112-112.8v-1.3l8-2.7l8,2.7v1.3H112z"/>
<path class="st0" d="M126.7-84.3c-0.4-0.4-1-0.4-1.4,0c0,0,0,0,0,0l-7.4,7.5l-3.1-3.1c-0.4-0.4-1.1-0.4-1.4,0s-0.4,1.1,0,1.4
	l3.8,3.8c0.4,0.4,1,0.4,1.4,0c0,0,0,0,0,0l8.2-8.2C127.1-83.2,127.1-83.8,126.7-84.3C126.7-84.2,126.7-84.3,126.7-84.3z"/>
<path class="st0" d="M120-59.3c-5.5,0-10,4.5-10,10c0,2.5,0.9,4.9,2.6,6.7l0,0c3.7,4.1,10.1,4.3,14.1,0.6c0.2-0.2,0.4-0.4,0.6-0.6
	l0,0c3.7-4.1,3.5-10.4-0.6-14.1C124.9-58.4,122.5-59.3,120-59.3z M120-41.3c-2.1,0-4.1-0.8-5.5-2.2c1.3-3.1,4.8-4.5,7.8-3.3
	c1.5,0.6,2.7,1.8,3.3,3.3C124.1-42.1,122.1-41.3,120-41.3z M118-51.3c0-1.1,0.9-2,2-2s2,0.9,2,2c0,1.1-0.9,2-2,2S118-50.2,118-51.3z
	 M126.9-45.3c-0.9-1.5-2.3-2.7-3.9-3.4c1.5-1.7,1.3-4.2-0.4-5.6s-4.2-1.3-5.6,0.4c-1.3,1.5-1.3,3.8,0,5.3c-1.6,0.7-3,1.9-3.9,3.4
	c-0.7-1.2-1.1-2.6-1.1-4c0-4.4,3.6-8,8-8c4.4,0,8,3.6,8,8C128-47.9,127.6-46.5,126.9-45.3z"/>
<path class="st0" d="M129.7-19.9l-9-8c-0.4-0.3-0.9-0.3-1.3,0l-9,8c-0.4,0.4-0.5,1-0.1,1.4c0.4,0.4,1,0.5,1.4,0.1l0.3-0.3v9.6
	c0,0.6,0.4,1,1,1c0,0,0,0,0,0h14c0.6,0,1-0.4,1-1c0,0,0,0,0,0v-9.6l0.3,0.3c0.4,0.4,1,0.3,1.4-0.1S130.1-19.5,129.7-19.9L129.7-19.9
	L129.7-19.9z M117.2-10.1c0.5-1.6,2.2-2.4,3.8-1.8c0.9,0.3,1.5,1,1.8,1.8H117.2z M118.5-15.6c0-0.8,0.7-1.5,1.5-1.5s1.5,0.7,1.5,1.5
	c0,0.8-0.7,1.5-1.5,1.5C119.2-14.1,118.5-14.8,118.5-15.6z M126-10.1h-1.1c-0.3-1.3-1.1-2.5-2.3-3.2c0.6-0.6,0.9-1.4,0.9-2.3
	c0-1.9-1.6-3.5-3.5-3.5s-3.5,1.6-3.5,3.5l0,0c0,0.8,0.3,1.6,0.9,2.3c-1.2,0.7-2,1.9-2.3,3.2H114v-10.3l6-5.3l6,5.3V-10.1z"/>
<path class="st0" d="M117,12h-2c-0.6,0-1,0.4-1,1s0.4,1,1,1h2c0.6,0,1-0.4,1-1S117.6,12,117,12z M116,10h4c0.6,0,1-0.4,1-1
	s-0.4-1-1-1h-4c-0.6,0-1,0.4-1,1S115.4,10,116,10z M117,16h-2c-0.6,0-1,0.4-1,1s0.4,1,1,1h2c0.6,0,1-0.4,1-1S117.6,16,117,16z
	 M129,12h-3V3c0-0.4-0.2-0.7-0.5-0.9c-0.3-0.2-0.7-0.2-1,0l-3,1.7l-3-1.7c-0.3-0.2-0.7-0.2-1,0l-3,1.7l-3-1.7c-0.3-0.2-0.7-0.2-1,0
	C110.2,2.3,110,2.6,110,3v16c0,1.7,1.3,3,3,3h14c1.7,0,3-1.3,3-3v-6C130,12.4,129.6,12,129,12z M113,20c-0.6,0-1-0.4-1-1V4.7l2,1.1
	c0.3,0.2,0.7,0.2,1,0l3-1.7l3,1.7c0.3,0.2,0.7,0.2,1,0l2-1.1V19c0,0.3,0.1,0.7,0.2,1H113z M128,19c0,0.6-0.4,1-1,1s-1-0.4-1-1v-5h2
	V19z M121.6,16.2c-0.1,0-0.1-0.1-0.2-0.1c-0.1,0-0.1-0.1-0.2-0.1c-0.3-0.1-0.7,0-0.9,0.3c-0.2,0.2-0.3,0.4-0.3,0.7
	c0,0.1,0,0.3,0.1,0.4c0.1,0.1,0.1,0.2,0.2,0.3c0.1,0.1,0.2,0.2,0.3,0.2c0.2,0.1,0.5,0.1,0.8,0c0.1-0.1,0.2-0.1,0.3-0.2
	c0.2-0.2,0.3-0.4,0.3-0.7c0-0.3-0.1-0.5-0.3-0.7C121.7,16.2,121.6,16.2,121.6,16.2z M121.7,12.3c-0.4-0.4-1-0.4-1.4,0
	c-0.1,0.1-0.2,0.2-0.2,0.3c-0.2,0.5,0,1.1,0.5,1.3c0.1,0,0.2,0.1,0.4,0.1c0.6,0,1-0.4,1-1c0-0.1,0-0.3-0.1-0.4
	C121.9,12.5,121.8,12.4,121.7,12.3z"/>
<path class="st1" d="M93.5-205.2c-0.1-0.2-0.3-0.4-0.5-0.5c-0.1-0.1-0.2-0.1-0.4-0.1h-5c-0.6,0-1,0.4-1,1c0,0.6,0.4,1,1,1h2.6
	l-5.6,5.6l-3.3-3.3c-0.4-0.4-1-0.4-1.4,0c0,0,0,0,0,0l-6,6c-0.4,0.4-0.4,1,0,1.4c0,0,0,0,0,0c0.4,0.4,1,0.4,1.4,0c0,0,0,0,0,0
	l5.3-5.3l3.3,3.3c0.4,0.4,1,0.4,1.4,0c0,0,0,0,0,0l6.3-6.3v2.6c0,0.6,0.4,1,1,1s1-0.4,1-1v-5C93.6-204.9,93.6-205.1,93.5-205.2z"/>
<path class="st1" d="M85.6-170.7h-1v-1c0-0.6-0.4-1-1-1s-1,0.4-1,1v1h-1c-0.6,0-1,0.4-1,1s0.4,1,1,1h1v1c0,0.6,0.4,1,1,1s1-0.4,1-1
	v-1h1c0.6,0,1-0.4,1-1S86.1-170.7,85.6-170.7z M91.2-178c-0.2-0.2-0.5-0.3-0.8-0.2c-2.2,0.5-4.4,0-6.2-1.3c-0.3-0.2-0.8-0.2-1.1,0
	c-1.8,1.3-4.1,1.7-6.2,1.3c-0.5-0.1-1.1,0.2-1.2,0.8c0,0.1,0,0.1,0,0.2v7.5c0,2.9,1.4,5.6,3.8,7.3l3.7,2.6c0.3,0.2,0.8,0.2,1.2,0
	l3.7-2.6c2.4-1.7,3.8-4.4,3.8-7.3v-7.5C91.6-177.5,91.4-177.8,91.2-178z M89.6-169.8c0,2.3-1.1,4.4-2.9,5.7l-3.1,2.2l-3.1-2.2
	c-1.8-1.3-2.9-3.4-2.9-5.7v-6.3c2.1,0.2,4.2-0.3,6-1.4c1.8,1.1,3.9,1.6,6,1.4V-169.8z"/>
<path class="st1" d="M84.3-133.2c0,0-0.1-0.1-0.2-0.1c-0.1,0-0.1-0.1-0.2-0.1c-0.1,0-0.1-0.1-0.2-0.1c-0.2,0-0.4,0-0.6,0.1
	c-0.3,0.1-0.4,0.3-0.5,0.5c-0.1,0.1-0.1,0.2-0.1,0.4c0,0.1,0,0.3,0.1,0.4c0.1,0.1,0.1,0.2,0.2,0.3c0.2,0.2,0.4,0.3,0.7,0.3
	c0.1,0,0.3,0,0.4-0.1c0.1-0.1,0.2-0.1,0.3-0.2c0.2-0.2,0.3-0.4,0.3-0.7c0-0.1,0-0.3-0.1-0.4C84.5-133,84.4-133.1,84.3-133.2z
	 M80.1-137.3c-0.1,0-0.1-0.1-0.2-0.1c-0.1,0-0.1-0.1-0.2-0.1c-0.1,0-0.3,0-0.4,0l-0.2,0.1l-0.2,0.1l-0.1,0.1
	c-0.2,0.2-0.3,0.5-0.3,0.7c0,0.3,0.1,0.5,0.3,0.7c0.1,0.1,0.2,0.2,0.3,0.2c0.5,0.2,1.1,0,1.3-0.5c0-0.1,0.1-0.2,0.1-0.4
	c0-0.3-0.1-0.5-0.3-0.7L80.1-137.3z M80.3-133.2c-0.1-0.1-0.2-0.2-0.3-0.2c-0.2-0.1-0.4-0.1-0.6-0.1l-0.2,0.1
	c-0.1,0-0.1,0.1-0.2,0.1c-0.1,0-0.1,0.1-0.1,0.1c-0.1,0.1-0.2,0.2-0.2,0.3c-0.1,0.2-0.1,0.5,0,0.8c0.1,0.1,0.1,0.2,0.2,0.3
	c0.2,0.2,0.4,0.3,0.7,0.3c0.1,0,0.3,0,0.4-0.1c0.1-0.1,0.2-0.1,0.3-0.2c0.1-0.1,0.2-0.2,0.2-0.3c0.1-0.2,0.1-0.5,0-0.8
	C80.5-133,80.4-133.1,80.3-133.2z M83.2-137.4c-0.1,0-0.2,0.1-0.3,0.2c-0.2,0.2-0.3,0.4-0.3,0.7c0,0.6,0.5,1,1,1
	c0.1,0,0.3,0,0.4-0.1c0.1-0.1,0.2-0.1,0.3-0.2c0.2-0.2,0.3-0.4,0.3-0.7c0-0.3-0.1-0.5-0.3-0.7C84-137.5,83.6-137.6,83.2-137.4z
	 M88.3-133.2c-0.1-0.1-0.2-0.2-0.3-0.2c-0.4-0.2-0.8-0.1-1.1,0.2c-0.1,0.1-0.2,0.2-0.2,0.3c-0.1,0.2-0.1,0.5,0,0.8
	c0.1,0.1,0.1,0.2,0.2,0.3c0.2,0.2,0.4,0.3,0.7,0.3c0.1,0,0.3,0,0.4-0.1c0.1-0.1,0.2-0.1,0.3-0.2c0.3-0.3,0.4-0.7,0.2-1.1
	C88.5-133,88.4-133.1,88.3-133.2z M87.6-145.5h-8c-0.6,0-1,0.4-1,1v4c0,0.6,0.4,1,1,1h8c0.6,0,1-0.4,1-1v-4
	C88.6-145,88.1-145.5,87.6-145.5z M86.6-141.5h-6v-2h6V-141.5z M89.6-149.5h-12c-1.7,0-3,1.3-3,3v16c0,1.7,1.3,3,3,3h12
	c1.7,0,3-1.3,3-3v-16C92.6-148.1,91.2-149.5,89.6-149.5z M90.6-130.5c0,0.6-0.4,1-1,1h-12c-0.6,0-1-0.4-1-1v-16c0-0.6,0.4-1,1-1h12
	c0.6,0,1,0.4,1,1V-130.5z M88.1-137.3c-0.1,0-0.1-0.1-0.2-0.1c-0.1,0-0.1-0.1-0.2-0.1c-0.1,0-0.3,0-0.4,0l-0.2,0.1l-0.2,0.1
	l-0.2,0.1c-0.2,0.2-0.3,0.4-0.3,0.7c0,0.6,0.5,1,1,1c0.1,0,0.3,0,0.4-0.1c0.1-0.1,0.2-0.1,0.3-0.2c0.2-0.2,0.3-0.4,0.3-0.7
	c0-0.3-0.1-0.5-0.3-0.7L88.1-137.3z"/>
<path class="st1" d="M92.6-110.8c0.6,0,1-0.4,1-1c0,0,0,0,0,0v-3c0-0.4-0.3-0.8-0.7-0.9l-9-3c-0.2-0.1-0.4-0.1-0.6,0l-9,3
	c-0.4,0.1-0.7,0.5-0.7,0.9v3c0,0.6,0.4,1,1,1c0,0,0,0,0,0h1v7.2c-1.2,0.4-2,1.5-2,2.8v2c0,0.6,0.4,1,1,1c0,0,0,0,0,0h18
	c0.6,0,1-0.4,1-1c0,0,0,0,0,0v-2c0-1.3-0.8-2.4-2-2.8v-7.2H92.6z M91.6-99.8h-16v-1c0-0.6,0.4-1,1-1h14c0.6,0,1,0.4,1,1V-99.8z
	 M77.6-103.8v-7h2v7H77.6z M81.6-103.8v-7h4v7H81.6z M87.6-103.8v-7h2v7H87.6z M75.6-112.8v-1.3l8-2.7l8,2.7v1.3H75.6z"/>
<path class="st1" d="M90.3-84.3c-0.4-0.4-1-0.4-1.4,0c0,0,0,0,0,0l-7.4,7.5L78.3-80c-0.4-0.4-1.1-0.4-1.4,0c-0.4,0.4-0.4,1.1,0,1.4
	l3.8,3.8c0.4,0.4,1,0.4,1.4,0c0,0,0,0,0,0l8.2-8.2C90.7-83.2,90.7-83.8,90.3-84.3C90.3-84.2,90.3-84.3,90.3-84.3z"/>
<path class="st1" d="M83.6-59.3c-5.5,0-10,4.5-10,10c0,2.5,0.9,4.9,2.6,6.7l0,0c3.7,4.1,10.1,4.3,14.1,0.6c0.2-0.2,0.4-0.4,0.6-0.6
	l0,0c3.7-4.1,3.5-10.4-0.6-14.1C88.5-58.4,86.1-59.3,83.6-59.3z M83.6-41.3c-2.1,0-4.1-0.8-5.6-2.2c1.3-3.1,4.8-4.5,7.8-3.3
	c1.5,0.6,2.7,1.8,3.3,3.3C87.6-42.1,85.7-41.3,83.6-41.3z M81.6-51.3c0-1.1,0.9-2,2-2s2,0.9,2,2c0,1.1-0.9,2-2,2
	S81.6-50.2,81.6-51.3z M90.5-45.3c-0.9-1.5-2.3-2.7-3.9-3.4c1.5-1.7,1.3-4.2-0.4-5.6S82-55.6,80.6-54c-1.3,1.5-1.3,3.8,0,5.3
	c-1.6,0.7-3,1.9-3.9,3.4c-0.7-1.2-1.1-2.6-1.1-4c0-4.4,3.6-8,8-8c4.4,0,8,3.6,8,8C91.6-47.9,91.2-46.5,90.5-45.3z"/>
<path class="st1" d="M93.2-19.9l-9-8c-0.4-0.3-0.9-0.3-1.3,0l-9,8c-0.4,0.4-0.5,1-0.1,1.4c0.4,0.4,1,0.5,1.4,0.1l0.3-0.3v9.6
	c0,0.6,0.4,1,1,1c0,0,0,0,0,0h14c0.6,0,1-0.4,1-1c0,0,0,0,0,0v-9.6l0.3,0.3c0.4,0.4,1,0.3,1.4-0.1C93.7-18.9,93.7-19.5,93.2-19.9
	L93.2-19.9L93.2-19.9z M80.8-10.1c0.5-1.6,2.2-2.4,3.8-1.8c0.9,0.3,1.5,1,1.8,1.8H80.8z M82.1-15.6c0-0.8,0.7-1.5,1.5-1.5
	c0.8,0,1.5,0.7,1.5,1.5c0,0.8-0.7,1.5-1.5,1.5C82.8-14.1,82.1-14.8,82.1-15.6z M89.6-10.1h-1.1c-0.3-1.3-1.1-2.5-2.3-3.2
	c0.6-0.6,0.9-1.4,0.9-2.3c0-1.9-1.6-3.5-3.5-3.5c-1.9,0-3.5,1.6-3.5,3.5l0,0c0,0.8,0.3,1.6,0.9,2.3c-1.2,0.7-2,1.9-2.3,3.2h-1.1
	v-10.3l6-5.3l6,5.3V-10.1z"/>
<path class="st1" d="M80.6,12h-2c-0.6,0-1,0.4-1,1s0.4,1,1,1h2c0.6,0,1-0.4,1-1S81.1,12,80.6,12z M79.6,10h4c0.6,0,1-0.4,1-1
	s-0.4-1-1-1h-4c-0.6,0-1,0.4-1,1S79,10,79.6,10z M80.6,16h-2c-0.6,0-1,0.4-1,1s0.4,1,1,1h2c0.6,0,1-0.4,1-1S81.1,16,80.6,16z
	 M92.6,12h-3V3c0-0.4-0.2-0.7-0.5-0.9c-0.3-0.2-0.7-0.2-1,0l-3,1.7l-3-1.7c-0.3-0.2-0.7-0.2-1,0l-3,1.7l-3-1.7c-0.3-0.2-0.7-0.2-1,0
	c-0.3,0.2-0.5,0.5-0.5,0.9v16c0,1.7,1.3,3,3,3h14c1.7,0,3-1.3,3-3v-6C93.6,12.4,93.1,12,92.6,12z M76.6,20c-0.6,0-1-0.4-1-1V4.7
	l2,1.1c0.3,0.2,0.7,0.2,1,0l3-1.7l3,1.7c0.3,0.2,0.7,0.2,1,0l2-1.1V19c0,0.3,0.1,0.7,0.2,1H76.6z M91.6,19c0,0.6-0.4,1-1,1
	s-1-0.4-1-1v-5h2V19z M85.1,16.2c-0.1,0-0.1-0.1-0.2-0.1c-0.1,0-0.1-0.1-0.2-0.1c-0.3-0.1-0.7,0-0.9,0.3c-0.2,0.2-0.3,0.4-0.3,0.7
	c0,0.1,0,0.3,0.1,0.4c0.1,0.1,0.1,0.2,0.2,0.3c0.1,0.1,0.2,0.2,0.3,0.2c0.2,0.1,0.5,0.1,0.8,0c0.1-0.1,0.2-0.1,0.3-0.2
	c0.2-0.2,0.3-0.4,0.3-0.7c0-0.3-0.1-0.5-0.3-0.7C85.2,16.2,85.2,16.2,85.1,16.2z M85.3,12.3c-0.4-0.4-1-0.4-1.4,0
	c-0.1,0.1-0.2,0.2-0.2,0.3c-0.2,0.5,0,1.1,0.5,1.3c0.1,0,0.2,0.1,0.4,0.1c0.6,0,1-0.4,1-1c0-0.1,0-0.3-0.1-0.4
	C85.5,12.5,85.4,12.4,85.3,12.3z"/>
<path class="st2" d="M58.3-205.2c-0.1-0.2-0.3-0.4-0.5-0.5c-0.1-0.1-0.2-0.1-0.4-0.1h-5c-0.6,0-1,0.4-1,1c0,0.6,0.4,1,1,1H55
	l-5.6,5.6l-3.3-3.3c-0.4-0.4-1-0.4-1.4,0c0,0,0,0,0,0l-6,6c-0.4,0.4-0.4,1,0,1.4c0,0,0,0,0,0c0.4,0.4,1,0.4,1.4,0c0,0,0,0,0,0
	l5.3-5.3l3.3,3.3c0.4,0.4,1,0.4,1.4,0c0,0,0,0,0,0l6.3-6.3v2.6c0,0.6,0.4,1,1,1s1-0.4,1-1v-5C58.4-204.9,58.4-205.1,58.3-205.2z"/>
<path class="st2" d="M50.4-170.7h-1v-1c0-0.6-0.4-1-1-1c-0.6,0-1,0.4-1,1v1h-1c-0.6,0-1,0.4-1,1s0.4,1,1,1h1v1c0,0.6,0.4,1,1,1
	c0.6,0,1-0.4,1-1v-1h1c0.6,0,1-0.4,1-1S51-170.7,50.4-170.7z M56-178c-0.2-0.2-0.5-0.3-0.8-0.2c-2.2,0.5-4.4,0-6.2-1.3
	c-0.3-0.2-0.8-0.2-1.1,0c-1.8,1.3-4.1,1.7-6.2,1.3c-0.5-0.1-1.1,0.2-1.2,0.8c0,0.1,0,0.1,0,0.2v7.5c0,2.9,1.4,5.6,3.8,7.3l3.7,2.6
	c0.3,0.2,0.8,0.2,1.2,0l3.7-2.6c2.4-1.7,3.8-4.4,3.8-7.3v-7.5C56.4-177.5,56.3-177.8,56-178z M54.4-169.8c0,2.3-1.1,4.4-2.9,5.7
	l-3.1,2.2l-3.1-2.2c-1.8-1.3-2.9-3.4-2.9-5.7v-6.3c2.1,0.2,4.2-0.3,6-1.4c1.8,1.1,3.9,1.6,6,1.4V-169.8z"/>
<path class="st2" d="M49.1-133.2c0,0-0.1-0.1-0.2-0.1c-0.1,0-0.1-0.1-0.2-0.1c-0.1,0-0.1-0.1-0.2-0.1c-0.2,0-0.4,0-0.6,0.1
	c-0.3,0.1-0.4,0.3-0.5,0.5c-0.1,0.1-0.1,0.2-0.1,0.4c0,0.1,0,0.3,0.1,0.4c0.1,0.1,0.1,0.2,0.2,0.3c0.2,0.2,0.4,0.3,0.7,0.3
	c0.1,0,0.3,0,0.4-0.1c0.1-0.1,0.2-0.1,0.3-0.2c0.2-0.2,0.3-0.4,0.3-0.7c0-0.1,0-0.3-0.1-0.4C49.3-133,49.2-133.1,49.1-133.2z
	 M45-137.3c-0.1,0-0.1-0.1-0.2-0.1c-0.1,0-0.1-0.1-0.2-0.1c-0.1,0-0.3,0-0.4,0l-0.2,0.1l-0.2,0.1l-0.2,0.1c-0.2,0.2-0.3,0.5-0.3,0.7
	c0,0.3,0.1,0.5,0.3,0.7c0.1,0.1,0.2,0.2,0.3,0.2c0.5,0.2,1.1,0,1.3-0.5c0-0.1,0.1-0.2,0.1-0.4c0-0.3-0.1-0.5-0.3-0.7L45-137.3z
	 M45.1-133.2c-0.1-0.1-0.2-0.2-0.3-0.2c-0.2-0.1-0.4-0.1-0.6-0.1l-0.2,0.1c-0.1,0-0.1,0.1-0.2,0.1c-0.1,0-0.1,0.1-0.1,0.1
	c-0.1,0.1-0.2,0.2-0.2,0.3c-0.1,0.2-0.1,0.5,0,0.8c0.1,0.1,0.1,0.2,0.2,0.3c0.2,0.2,0.4,0.3,0.7,0.3c0.1,0,0.3,0,0.4-0.1
	c0.1-0.1,0.2-0.1,0.3-0.2c0.1-0.1,0.2-0.2,0.2-0.3c0.1-0.2,0.1-0.5,0-0.8C45.3-133,45.2-133.1,45.1-133.2z M48-137.4
	c-0.1,0-0.2,0.1-0.3,0.2c-0.2,0.2-0.3,0.4-0.3,0.7c0,0.6,0.5,1,1,1c0.1,0,0.3,0,0.4-0.1c0.1-0.1,0.2-0.1,0.3-0.2
	c0.2-0.2,0.3-0.4,0.3-0.7c0-0.3-0.1-0.5-0.3-0.7C48.8-137.5,48.4-137.6,48-137.4z M53.1-133.2c-0.1-0.1-0.2-0.2-0.3-0.2
	c-0.4-0.2-0.8-0.1-1.1,0.2c-0.1,0.1-0.2,0.2-0.2,0.3c-0.1,0.2-0.1,0.5,0,0.8c0.1,0.1,0.1,0.2,0.2,0.3c0.2,0.2,0.4,0.3,0.7,0.3
	c0.1,0,0.3,0,0.4-0.1c0.1-0.1,0.2-0.1,0.3-0.2c0.3-0.3,0.4-0.7,0.2-1.1C53.3-133,53.2-133.1,53.1-133.2z M52.4-145.5h-8
	c-0.6,0-1,0.4-1,1v4c0,0.6,0.4,1,1,1h8c0.6,0,1-0.4,1-1v-4C53.4-145,53-145.5,52.4-145.5z M51.4-141.5h-6v-2h6V-141.5z M54.4-149.5
	h-12c-1.7,0-3,1.3-3,3v16c0,1.7,1.3,3,3,3h12c1.7,0,3-1.3,3-3v-16C57.4-148.1,56.1-149.5,54.4-149.5z M55.4-130.5c0,0.6-0.4,1-1,1
	h-12c-0.6,0-1-0.4-1-1v-16c0-0.6,0.4-1,1-1h12c0.6,0,1,0.4,1,1V-130.5z M53-137.3c-0.1,0-0.1-0.1-0.2-0.1c-0.1,0-0.1-0.1-0.2-0.1
	c-0.1,0-0.3,0-0.4,0l-0.2,0.1l-0.2,0.1l-0.1,0.1c-0.2,0.2-0.3,0.4-0.3,0.7c0,0.6,0.5,1,1,1c0.1,0,0.3,0,0.4-0.1
	c0.1-0.1,0.2-0.1,0.3-0.2c0.2-0.2,0.3-0.4,0.3-0.7c0-0.3-0.1-0.5-0.3-0.7L53-137.3z"/>
<path class="st2" d="M57.4-110.8c0.6,0,1-0.4,1-1c0,0,0,0,0,0v-3c0-0.4-0.3-0.8-0.7-0.9l-9-3c-0.2-0.1-0.4-0.1-0.6,0l-9,3
	c-0.4,0.1-0.7,0.5-0.7,0.9v3c0,0.6,0.4,1,1,1c0,0,0,0,0,0h1v7.2c-1.2,0.4-2,1.5-2,2.8v2c0,0.6,0.4,1,1,1c0,0,0,0,0,0h18
	c0.6,0,1-0.4,1-1c0,0,0,0,0,0v-2c0-1.3-0.8-2.4-2-2.8v-7.2H57.4z M56.4-99.8h-16v-1c0-0.6,0.4-1,1-1h14c0.6,0,1,0.4,1,1V-99.8z
	 M42.4-103.8v-7h2v7H42.4z M46.4-103.8v-7h4v7H46.4z M52.4-103.8v-7h2v7H52.4z M40.4-112.8v-1.3l8-2.7l8,2.7v1.3H40.4z"/>
<path class="st2" d="M55.1-84.3c-0.4-0.4-1-0.4-1.4,0c0,0,0,0,0,0l-7.5,7.5L43.1-80c-0.4-0.4-1.1-0.4-1.4,0c-0.4,0.4-0.4,1.1,0,1.4
	l3.8,3.8c0.4,0.4,1,0.4,1.4,0c0,0,0,0,0,0l8.2-8.2C55.5-83.2,55.6-83.8,55.1-84.3C55.2-84.2,55.1-84.3,55.1-84.3z"/>
<path class="st2" d="M48.4-59.3c-5.5,0-10,4.5-10,10c0,2.5,0.9,4.9,2.6,6.7l0,0c3.7,4.1,10.1,4.3,14.1,0.6c0.2-0.2,0.4-0.4,0.6-0.6
	l0,0c3.7-4.1,3.5-10.4-0.6-14.1C53.3-58.4,50.9-59.3,48.4-59.3z M48.4-41.3c-2.1,0-4.1-0.8-5.5-2.2c1.3-3.1,4.8-4.5,7.8-3.3
	c1.5,0.6,2.7,1.8,3.3,3.3C52.5-42.1,50.5-41.3,48.4-41.3z M46.4-51.3c0-1.1,0.9-2,2-2s2,0.9,2,2c0,1.1-0.9,2-2,2
	S46.4-50.2,46.4-51.3z M55.3-45.3c-0.9-1.5-2.3-2.7-3.9-3.4c1.5-1.7,1.3-4.2-0.4-5.6s-4.2-1.3-5.6,0.4c-1.3,1.5-1.3,3.8,0,5.3
	c-1.6,0.7-3,1.9-3.9,3.4c-0.7-1.2-1.1-2.6-1.1-4c0-4.4,3.6-8,8-8s8,3.6,8,8C56.4-47.9,56-46.5,55.3-45.3z"/>
<path class="st2" d="M58.1-19.9l-9-8c-0.4-0.3-0.9-0.3-1.3,0l-9,8c-0.4,0.4-0.5,1-0.1,1.4c0.4,0.4,1,0.5,1.4,0.1l0.3-0.3v9.6
	c0,0.6,0.4,1,1,1c0,0,0,0,0,0h14c0.6,0,1-0.4,1-1c0,0,0,0,0,0v-9.6l0.3,0.3c0.4,0.4,1,0.3,1.4-0.1S58.5-19.5,58.1-19.9L58.1-19.9
	L58.1-19.9z M45.6-10.1c0.5-1.6,2.2-2.4,3.8-1.8c0.9,0.3,1.5,1,1.8,1.8H45.6z M46.9-15.6c0-0.8,0.7-1.5,1.5-1.5s1.5,0.7,1.5,1.5
	c0,0.8-0.7,1.5-1.5,1.5C47.6-14.1,46.9-14.8,46.9-15.6z M54.4-10.1h-1.1c-0.3-1.3-1.1-2.5-2.3-3.2c0.6-0.6,0.9-1.4,0.9-2.3
	c0-1.9-1.6-3.5-3.5-3.5c-1.9,0-3.5,1.6-3.5,3.5l0,0c0,0.8,0.3,1.6,0.9,2.3c-1.2,0.7-2,1.9-2.3,3.2h-1.1v-10.3l6-5.3l6,5.3V-10.1z"/>
<path class="st2" d="M45.4,12h-2c-0.6,0-1,0.4-1,1s0.4,1,1,1h2c0.6,0,1-0.4,1-1S46,12,45.4,12z M44.4,10h4c0.6,0,1-0.4,1-1
	s-0.4-1-1-1h-4c-0.6,0-1,0.4-1,1S43.9,10,44.4,10z M45.4,16h-2c-0.6,0-1,0.4-1,1s0.4,1,1,1h2c0.6,0,1-0.4,1-1S46,16,45.4,16z
	 M57.4,12h-3V3c0-0.4-0.2-0.7-0.5-0.9c-0.3-0.2-0.7-0.2-1,0l-3,1.7l-3-1.7c-0.3-0.2-0.7-0.2-1,0l-3,1.7l-3-1.7c-0.3-0.2-0.7-0.2-1,0
	c-0.3,0.2-0.5,0.5-0.5,0.9v16c0,1.7,1.3,3,3,3h14c1.7,0,3-1.3,3-3v-6C58.4,12.4,58,12,57.4,12z M41.4,20c-0.6,0-1-0.4-1-1V4.7l2,1.1
	c0.3,0.2,0.7,0.2,1,0l3-1.7l3,1.7c0.3,0.2,0.7,0.2,1,0l2-1.1V19c0,0.3,0.1,0.7,0.2,1H41.4z M56.4,19c0,0.6-0.4,1-1,1s-1-0.4-1-1v-5
	h2V19z M50,16.2c-0.1,0-0.1-0.1-0.2-0.1c-0.1,0-0.1-0.1-0.2-0.1c-0.3-0.1-0.7,0-0.9,0.3c-0.2,0.2-0.3,0.4-0.3,0.7
	c0,0.1,0,0.3,0.1,0.4c0.1,0.1,0.1,0.2,0.2,0.3c0.1,0.1,0.2,0.2,0.3,0.2c0.2,0.1,0.5,0.1,0.8,0c0.1-0.1,0.2-0.1,0.3-0.2
	c0.2-0.2,0.3-0.4,0.3-0.7c0-0.3-0.1-0.5-0.3-0.7C50.1,16.2,50,16.2,50,16.2z M50.1,12.3c-0.4-0.4-1-0.4-1.4,0
	c-0.1,0.1-0.2,0.2-0.2,0.3c-0.2,0.5,0,1.1,0.5,1.3c0.1,0,0.2,0.1,0.4,0.1c0.6,0,1-0.4,1-1c0-0.1,0-0.3-0.1-0.4
	C50.3,12.5,50.2,12.4,50.1,12.3z"/>
<path class="st2" d="M21.9-205.2c-0.1-0.2-0.3-0.4-0.5-0.5c-0.1-0.1-0.2-0.1-0.4-0.1h-5c-0.6,0-1,0.4-1,1c0,0.6,0.4,1,1,1h2.6
	l-5.6,5.6l-3.3-3.3c-0.4-0.4-1-0.4-1.4,0c0,0,0,0,0,0l-6,6c-0.4,0.4-0.4,1,0,1.4c0,0,0,0,0,0c0.4,0.4,1,0.4,1.4,0c0,0,0,0,0,0
	l5.3-5.3l3.3,3.3c0.4,0.4,1,0.4,1.4,0c0,0,0,0,0,0l6.3-6.3v2.6c0,0.6,0.4,1,1,1s1-0.4,1-1v-5C22-204.9,22-205.1,21.9-205.2z"/>
<path class="st2" d="M14-170.7h-1v-1c0-0.6-0.4-1-1-1s-1,0.4-1,1v1h-1c-0.6,0-1,0.4-1,1s0.4,1,1,1h1v1c0,0.6,0.4,1,1,1s1-0.4,1-1v-1
	h1c0.6,0,1-0.4,1-1S14.6-170.7,14-170.7z M19.6-178c-0.2-0.2-0.5-0.3-0.8-0.2c-2.2,0.5-4.4,0-6.2-1.3c-0.3-0.2-0.8-0.2-1.1,0
	c-1.8,1.3-4.1,1.7-6.2,1.3c-0.5-0.1-1.1,0.2-1.2,0.8c0,0.1,0,0.1,0,0.2v7.5c0,2.9,1.4,5.6,3.8,7.3l3.7,2.6c0.3,0.2,0.8,0.2,1.2,0
	l3.7-2.6c2.4-1.7,3.8-4.4,3.8-7.3v-7.5C20-177.5,19.9-177.8,19.6-178z M18-169.8c0,2.3-1.1,4.4-2.9,5.7l-3.1,2.2l-3.1-2.2
	c-1.8-1.3-2.9-3.4-2.9-5.7v-6.3c2.1,0.2,4.2-0.3,6-1.4c1.8,1.1,3.9,1.6,6,1.4V-169.8z"/>
<path class="st2" d="M12.7-133.2c0,0-0.1-0.1-0.2-0.1c-0.1,0-0.1-0.1-0.2-0.1c-0.1,0-0.1-0.1-0.2-0.1c-0.2,0-0.4,0-0.6,0.1
	c-0.3,0.1-0.4,0.3-0.5,0.5c-0.1,0.1-0.1,0.2-0.1,0.4c0,0.1,0,0.3,0.1,0.4c0.1,0.1,0.1,0.2,0.2,0.3c0.2,0.2,0.4,0.3,0.7,0.3
	c0.1,0,0.3,0,0.4-0.1c0.1-0.1,0.2-0.1,0.3-0.2c0.2-0.2,0.3-0.4,0.3-0.7c0-0.1,0-0.3-0.1-0.4C12.9-133,12.8-133.1,12.7-133.2z
	 M8.6-137.3c-0.1,0-0.1-0.1-0.2-0.1c-0.1,0-0.1-0.1-0.2-0.1c-0.1,0-0.3,0-0.4,0l-0.2,0.1l-0.2,0.1l-0.2,0.1C7.1-137,7-136.8,7-136.5
	c0,0.3,0.1,0.5,0.3,0.7c0.1,0.1,0.2,0.2,0.3,0.2c0.5,0.2,1.1,0,1.3-0.5c0-0.1,0.1-0.2,0.1-0.4c0-0.3-0.1-0.5-0.3-0.7L8.6-137.3z
	 M8.7-133.2c-0.1-0.1-0.2-0.2-0.3-0.2c-0.2-0.1-0.4-0.1-0.6-0.1l-0.2,0.1c-0.1,0-0.1,0.1-0.2,0.1c-0.1,0-0.1,0.1-0.2,0.1
	c-0.1,0.1-0.2,0.2-0.2,0.3c-0.1,0.2-0.1,0.5,0,0.8c0.1,0.1,0.1,0.2,0.2,0.3c0.2,0.2,0.4,0.3,0.7,0.3c0.1,0,0.3,0,0.4-0.1
	c0.1-0.1,0.2-0.1,0.3-0.2c0.1-0.1,0.2-0.2,0.2-0.3c0.1-0.2,0.1-0.5,0-0.8C8.9-133,8.8-133.1,8.7-133.2z M11.6-137.4
	c-0.1,0-0.2,0.1-0.3,0.2c-0.2,0.2-0.3,0.4-0.3,0.7c0,0.6,0.5,1,1,1c0.1,0,0.3,0,0.4-0.1c0.1-0.1,0.2-0.1,0.3-0.2
	c0.2-0.2,0.3-0.4,0.3-0.7c0-0.3-0.1-0.5-0.3-0.7C12.4-137.5,12-137.6,11.6-137.4z M16.7-133.2c-0.1-0.1-0.2-0.2-0.3-0.2
	c-0.4-0.2-0.8-0.1-1.1,0.2c-0.1,0.1-0.2,0.2-0.2,0.3c-0.1,0.2-0.1,0.5,0,0.8c0.1,0.1,0.1,0.2,0.2,0.3c0.2,0.2,0.4,0.3,0.7,0.3
	c0.1,0,0.3,0,0.4-0.1c0.1-0.1,0.2-0.1,0.3-0.2c0.3-0.3,0.4-0.7,0.2-1.1C16.9-133,16.8-133.1,16.7-133.2z M16-145.5H8
	c-0.6,0-1,0.4-1,1v4c0,0.6,0.4,1,1,1h8c0.6,0,1-0.4,1-1v-4C17-145,16.6-145.5,16-145.5z M15-141.5H9v-2h6V-141.5z M18-149.5H6
	c-1.7,0-3,1.3-3,3v16c0,1.7,1.3,3,3,3h12c1.7,0,3-1.3,3-3v-16C21-148.1,19.7-149.5,18-149.5z M19-130.5c0,0.6-0.4,1-1,1H6
	c-0.6,0-1-0.4-1-1v-16c0-0.6,0.4-1,1-1h12c0.6,0,1,0.4,1,1V-130.5z M16.5-137.3c-0.1,0-0.1-0.1-0.2-0.1c-0.1,0-0.1-0.1-0.2-0.1
	c-0.1,0-0.3,0-0.4,0l-0.2,0.1l-0.2,0.1l-0.1,0.1c-0.2,0.2-0.3,0.4-0.3,0.7c0,0.6,0.5,1,1,1c0.1,0,0.3,0,0.4-0.1
	c0.1-0.1,0.2-0.1,0.3-0.2c0.2-0.2,0.3-0.4,0.3-0.7c0-0.3-0.1-0.5-0.3-0.7L16.5-137.3z"/>
<path class="st2" d="M21-110.8c0.6,0,1-0.4,1-1c0,0,0,0,0,0v-3c0-0.4-0.3-0.8-0.7-0.9l-9-3c-0.2-0.1-0.4-0.1-0.6,0l-9,3
	c-0.4,0.1-0.7,0.5-0.7,0.9v3c0,0.6,0.4,1,1,1c0,0,0,0,0,0h1v7.2c-1.2,0.4-2,1.5-2,2.8v2c0,0.6,0.4,1,1,1c0,0,0,0,0,0h18
	c0.6,0,1-0.4,1-1c0,0,0,0,0,0v-2c0-1.3-0.8-2.4-2-2.8v-7.2H21z M20-99.8H4v-1c0-0.6,0.4-1,1-1h14c0.6,0,1,0.4,1,1V-99.8z M6-103.8
	v-7h2v7H6z M10-103.8v-7h4v7H10z M16-103.8v-7h2v7H16z M4-112.8v-1.3l8-2.7l8,2.7v1.3H4z"/>
<path class="st2" d="M18.7-84.3c-0.4-0.4-1-0.4-1.4,0c0,0,0,0,0,0l-7.4,7.5L6.7-80c-0.4-0.4-1.1-0.4-1.4,0s-0.4,1.1,0,1.4l3.8,3.8
	c0.4,0.4,1,0.4,1.4,0c0,0,0,0,0,0l8.2-8.2C19.1-83.2,19.1-83.8,18.7-84.3C18.7-84.2,18.7-84.3,18.7-84.3z"/>
<path class="st2" d="M12-59.3c-5.5,0-10,4.5-10,10c0,2.5,0.9,4.9,2.6,6.7l0,0c3.7,4.1,10.1,4.3,14.1,0.6c0.2-0.2,0.4-0.4,0.6-0.6
	l0,0c3.7-4.1,3.5-10.4-0.6-14.1C16.9-58.4,14.5-59.3,12-59.3z M12-41.3c-2.1,0-4.1-0.8-5.6-2.2c1.3-3.1,4.8-4.5,7.8-3.3
	c1.5,0.6,2.7,1.8,3.3,3.3C16.1-42.1,14.1-41.3,12-41.3z M10-51.3c0-1.1,0.9-2,2-2s2,0.9,2,2c0,1.1-0.9,2-2,2S10-50.2,10-51.3z
	 M18.9-45.3C18-46.8,16.6-48,15-48.7c1.5-1.7,1.3-4.2-0.4-5.6S10.5-55.6,9-54c-1.3,1.5-1.3,3.8,0,5.3c-1.6,0.7-3,1.9-3.9,3.4
	c-0.7-1.2-1.1-2.6-1.1-4c0-4.4,3.6-8,8-8s8,3.6,8,8C20-47.9,19.6-46.5,18.9-45.3z"/>
<path class="st2" d="M21.7-19.9l-9-8c-0.4-0.3-0.9-0.3-1.3,0l-9,8c-0.4,0.4-0.5,1-0.1,1.4c0.4,0.4,1,0.5,1.4,0.1L4-18.7v9.6
	c0,0.6,0.4,1,1,1c0,0,0,0,0,0h14c0.6,0,1-0.4,1-1c0,0,0,0,0,0v-9.6l0.3,0.3c0.4,0.4,1,0.3,1.4-0.1C22.1-18.9,22.1-19.5,21.7-19.9
	L21.7-19.9L21.7-19.9z M9.2-10.1c0.5-1.6,2.2-2.4,3.8-1.8c0.9,0.3,1.5,1,1.8,1.8H9.2z M10.5-15.6c0-0.8,0.7-1.5,1.5-1.5
	s1.5,0.7,1.5,1.5c0,0.8-0.7,1.5-1.5,1.5C11.2-14.1,10.5-14.8,10.5-15.6z M18-10.1h-1.1c-0.3-1.3-1.1-2.5-2.3-3.2
	c0.6-0.6,0.9-1.4,0.9-2.3c0-1.9-1.6-3.5-3.5-3.5s-3.5,1.6-3.5,3.5l0,0c0,0.8,0.3,1.6,0.9,2.3c-1.2,0.7-2,1.9-2.3,3.2H6v-10.3l6-5.3
	l6,5.3V-10.1z"/>
<path class="st2" d="M9,12H7c-0.6,0-1,0.4-1,1s0.4,1,1,1h2c0.6,0,1-0.4,1-1S9.6,12,9,12z M8,10h4c0.6,0,1-0.4,1-1s-0.4-1-1-1H8
	C7.4,8,7,8.4,7,9S7.4,10,8,10z M9,16H7c-0.6,0-1,0.4-1,1s0.4,1,1,1h2c0.6,0,1-0.4,1-1S9.6,16,9,16z M21,12h-3V3
	c0-0.4-0.2-0.7-0.5-0.9c-0.3-0.2-0.7-0.2-1,0l-3,1.7l-3-1.7c-0.3-0.2-0.7-0.2-1,0l-3,1.7l-3-1.7C3.2,2,2.8,2,2.5,2.1
	C2.2,2.3,2,2.6,2,3v16c0,1.7,1.3,3,3,3h14c1.7,0,3-1.3,3-3v-6C22,12.4,21.6,12,21,12z M5,20c-0.6,0-1-0.4-1-1V4.7l2,1.1
	C6.3,6,6.7,6,7,5.9l3-1.7l3,1.7c0.3,0.2,0.7,0.2,1,0l2-1.1V19c0,0.3,0.1,0.7,0.2,1H5z M20,19c0,0.6-0.4,1-1,1s-1-0.4-1-1v-5h2V19z
	 M13.6,16.2c-0.1,0-0.1-0.1-0.2-0.1c-0.1,0-0.1-0.1-0.2-0.1c-0.3-0.1-0.7,0-0.9,0.3C12.1,16.5,12,16.7,12,17c0,0.1,0,0.3,0.1,0.4
	c0.1,0.1,0.1,0.2,0.2,0.3c0.1,0.1,0.2,0.2,0.3,0.2c0.2,0.1,0.5,0.1,0.8,0c0.1-0.1,0.2-0.1,0.3-0.2c0.2-0.2,0.3-0.4,0.3-0.7
	c0-0.3-0.1-0.5-0.3-0.7C13.7,16.2,13.6,16.2,13.6,16.2z M13.7,12.3c-0.4-0.4-1-0.4-1.4,0c-0.1,0.1-0.2,0.2-0.2,0.3
	c-0.2,0.5,0,1.1,0.5,1.3c0.1,0,0.2,0.1,0.4,0.1c0.6,0,1-0.4,1-1c0-0.1,0-0.3-0.1-0.4C13.9,12.5,13.8,12.4,13.7,12.3z"/>
<path class="st3" d="M150.7-200.8v-2c0-2.8-2.2-5-5-5c-2.8,0-5,2.2-5,5v2c-1.7,0-3,1.3-3,3v7c0,1.7,1.3,3,3,3h10c1.7,0,3-1.3,3-3v-7
	C153.7-199.5,152.3-200.8,150.7-200.8z M142.7-202.8c0-1.7,1.3-3,3-3c1.7,0,3,1.3,3,3v2h-6V-202.8z M151.7-190.8c0,0.6-0.4,1-1,1
	h-10c-0.6,0-1-0.4-1-1v-7c0-0.6,0.4-1,1-1h10c0.6,0,1,0.4,1,1V-190.8z"/>
<g>
	<defs>
		<rect id="SVGID_1_" x="37.3" y="-210.9" width="46.9" height="242.5"/>
	</defs>
	<clipPath id="SVGID_00000075161854513628690500000012325468772034877875_">
		<use xlink:href="#SVGID_1_"  style="overflow:visible;"/>
	</clipPath>
	<g style="clip-path:url(#SVGID_00000075161854513628690500000012325468772034877875_);">
		<g>
			<g>
				<path class="st5" d="M43.4-206.3h-4c-0.3,0-0.5-0.2-0.5-0.5c0,0,0,0,0,0v-1.5c0-1.4,1.1-2.5,2.5-2.5c1.4,0,2.5,1.1,2.5,2.5v1.5
					C43.9-206.5,43.7-206.3,43.4-206.3C43.4-206.3,43.4-206.3,43.4-206.3z M39.9-207.3h3v-1c0-0.8-0.7-1.5-1.5-1.5
					c-0.8,0-1.5,0.7-1.5,1.5V-207.3z"/>
				<path class="st5" d="M38.9-207.3h5c0.8,0,1.5,0.7,1.5,1.5v3.5c0,0.8-0.7,1.5-1.5,1.5h-5c-0.8,0-1.5-0.7-1.5-1.5v-3.5
					C37.4-206.6,38.1-207.3,38.9-207.3z"/>
			</g>
			<g>
				<path class="st3" d="M78.6-206.3h-4c-0.3,0-0.5-0.2-0.5-0.5c0,0,0,0,0,0v-1.5c0-1.4,1.1-2.5,2.5-2.5c1.4,0,2.5,1.1,2.5,2.5v1.5
					C79.1-206.5,78.9-206.3,78.6-206.3C78.6-206.3,78.6-206.3,78.6-206.3z M75.1-207.3h3v-1c0-0.8-0.7-1.5-1.5-1.5
					c-0.8,0-1.5,0.7-1.5,1.5V-207.3z"/>
				<path class="st3" d="M74.1-207.3h5c0.8,0,1.5,0.7,1.5,1.5v3.5c0,0.8-0.7,1.5-1.5,1.5h-5c-0.8,0-1.5-0.7-1.5-1.5v-3.5
					C72.6-206.6,73.3-207.3,74.1-207.3z"/>
			</g>
		</g>
		<g>
			<g>
				<path class="st5" d="M43.4-175.7h-4c-0.3,0-0.5-0.2-0.5-0.5c0,0,0,0,0,0v-1.5c0-1.4,1.1-2.5,2.5-2.5c1.4,0,2.5,1.1,2.5,2.5v1.5
					C43.9-176,43.7-175.7,43.4-175.7C43.4-175.7,43.4-175.7,43.4-175.7z M39.9-176.7h3v-1c0-0.8-0.7-1.5-1.5-1.5
					c-0.8,0-1.5,0.7-1.5,1.5V-176.7z"/>
				<path class="st5" d="M38.9-176.7h5c0.8,0,1.5,0.7,1.5,1.5v3.5c0,0.8-0.7,1.5-1.5,1.5h-5c-0.8,0-1.5-0.7-1.5-1.5v-3.5
					C37.4-176.1,38.1-176.7,38.9-176.7z"/>
			</g>
			<g>
				<path class="st3" d="M78.6-175.7h-4c-0.3,0-0.5-0.2-0.5-0.5c0,0,0,0,0,0v-1.5c0-1.4,1.1-2.5,2.5-2.5c1.4,0,2.5,1.1,2.5,2.5v1.5
					C79.1-176,78.9-175.7,78.6-175.7C78.6-175.7,78.6-175.7,78.6-175.7z M75.1-176.7h3v-1c0-0.8-0.7-1.5-1.5-1.5
					c-0.8,0-1.5,0.7-1.5,1.5V-176.7z"/>
				<path class="st3" d="M74.1-176.7h5c0.8,0,1.5,0.7,1.5,1.5v3.5c0,0.8-0.7,1.5-1.5,1.5h-5c-0.8,0-1.5-0.7-1.5-1.5v-3.5
					C72.6-176.1,73.3-176.7,74.1-176.7z"/>
			</g>
		</g>
		<g>
			<g>
				<path class="st5" d="M43.4-145.1h-4c-0.3,0-0.5-0.2-0.5-0.5c0,0,0,0,0,0v-1.5c0-1.4,1.1-2.5,2.5-2.5c1.4,0,2.5,1.1,2.5,2.5v1.5
					C43.9-145.4,43.7-145.1,43.4-145.1C43.4-145.1,43.4-145.1,43.4-145.1z M39.9-146.1h3v-1c0-0.8-0.7-1.5-1.5-1.5
					c-0.8,0-1.5,0.7-1.5,1.5V-146.1z"/>
				<path class="st5" d="M38.9-146.1h5c0.8,0,1.5,0.7,1.5,1.5v3.5c0,0.8-0.7,1.5-1.5,1.5h-5c-0.8,0-1.5-0.7-1.5-1.5v-3.5
					C37.4-145.5,38.1-146.1,38.9-146.1z"/>
			</g>
			<g>
				<path class="st3" d="M78.6-145.1h-4c-0.3,0-0.5-0.2-0.5-0.5c0,0,0,0,0,0v-1.5c0-1.4,1.1-2.5,2.5-2.5c1.4,0,2.5,1.1,2.5,2.5v1.5
					C79.1-145.4,78.9-145.1,78.6-145.1C78.6-145.1,78.6-145.1,78.6-145.1z M75.1-146.1h3v-1c0-0.8-0.7-1.5-1.5-1.5
					c-0.8,0-1.5,0.7-1.5,1.5V-146.1z"/>
				<path class="st3" d="M74.1-146.1h5c0.8,0,1.5,0.7,1.5,1.5v3.5c0,0.8-0.7,1.5-1.5,1.5h-5c-0.8,0-1.5-0.7-1.5-1.5v-3.5
					C72.6-145.5,73.3-146.1,74.1-146.1z"/>
			</g>
		</g>
		<g>
			<g>
				<path class="st5" d="M43.4-114.6h-4c-0.3,0-0.5-0.2-0.5-0.5c0,0,0,0,0,0v-1.5c0-1.4,1.1-2.5,2.5-2.5c1.4,0,2.5,1.1,2.5,2.5v1.5
					C43.9-114.8,43.7-114.6,43.4-114.6C43.4-114.6,43.4-114.6,43.4-114.6z M39.9-115.6h3v-1c0-0.8-0.7-1.5-1.5-1.5
					c-0.8,0-1.5,0.7-1.5,1.5V-115.6z"/>
				<path class="st5" d="M38.9-115.6h5c0.8,0,1.5,0.7,1.5,1.5v3.5c0,0.8-0.7,1.5-1.5,1.5h-5c-0.8,0-1.5-0.7-1.5-1.5v-3.5
					C37.4-114.9,38.1-115.6,38.9-115.6z"/>
			</g>
			<g>
				<path class="st3" d="M78.6-114.6h-4c-0.3,0-0.5-0.2-0.5-0.5c0,0,0,0,0,0v-1.5c0-1.4,1.1-2.5,2.5-2.5c1.4,0,2.5,1.1,2.5,2.5v1.5
					C79.1-114.8,78.9-114.6,78.6-114.6C78.6-114.6,78.6-114.6,78.6-114.6z M75.1-115.6h3v-1c0-0.8-0.7-1.5-1.5-1.5
					c-0.8,0-1.5,0.7-1.5,1.5V-115.6z"/>
				<path class="st3" d="M74.1-115.6h5c0.8,0,1.5,0.7,1.5,1.5v3.5c0,0.8-0.7,1.5-1.5,1.5h-5c-0.8,0-1.5-0.7-1.5-1.5v-3.5
					C72.6-114.9,73.3-115.6,74.1-115.6z"/>
			</g>
		</g>
		<g>
			<g>
				<path class="st5" d="M43.4-84h-4c-0.3,0-0.5-0.2-0.5-0.5c0,0,0,0,0,0V-86c0-1.4,1.1-2.5,2.5-2.5c1.4,0,2.5,1.1,2.5,2.5v1.5
					C43.9-84.2,43.7-84,43.4-84C43.4-84,43.4-84,43.4-84z M39.9-85h3v-1c0-0.8-0.7-1.5-1.5-1.5c-0.8,0-1.5,0.7-1.5,1.5V-85z"/>
				<path class="st5" d="M38.9-85h5c0.8,0,1.5,0.7,1.5,1.5v3.5c0,0.8-0.7,1.5-1.5,1.5h-5c-0.8,0-1.5-0.7-1.5-1.5v-3.5
					C37.4-84.3,38.1-85,38.9-85z"/>
			</g>
			<g>
				<path class="st3" d="M78.6-84h-4c-0.3,0-0.5-0.2-0.5-0.5c0,0,0,0,0,0V-86c0-1.4,1.1-2.5,2.5-2.5c1.4,0,2.5,1.1,2.5,2.5v1.5
					C79.1-84.2,78.9-84,78.6-84C78.6-84,78.6-84,78.6-84z M75.1-85h3v-1c0-0.8-0.7-1.5-1.5-1.5c-0.8,0-1.5,0.7-1.5,1.5V-85z"/>
				<path class="st3" d="M74.1-85h5c0.8,0,1.5,0.7,1.5,1.5v3.5c0,0.8-0.7,1.5-1.5,1.5h-5c-0.8,0-1.5-0.7-1.5-1.5v-3.5
					C72.6-84.3,73.3-85,74.1-85z"/>
			</g>
		</g>
		<g>
			<g>
				<path class="st5" d="M43.4-53.4h-4c-0.3,0-0.5-0.2-0.5-0.5c0,0,0,0,0,0v-1.5c0-1.4,1.1-2.5,2.5-2.5c1.4,0,2.5,1.1,2.5,2.5v1.5
					C43.9-53.6,43.7-53.4,43.4-53.4C43.4-53.4,43.4-53.4,43.4-53.4z M39.9-54.4h3v-1c0-0.8-0.7-1.5-1.5-1.5c-0.8,0-1.5,0.7-1.5,1.5
					V-54.4z"/>
				<path class="st5" d="M38.9-54.4h5c0.8,0,1.5,0.7,1.5,1.5v3.5c0,0.8-0.7,1.5-1.5,1.5h-5c-0.8,0-1.5-0.7-1.5-1.5v-3.5
					C37.4-53.7,38.1-54.4,38.9-54.4z"/>
			</g>
			<g>
				<path class="st3" d="M78.6-53.4h-4c-0.3,0-0.5-0.2-0.5-0.5c0,0,0,0,0,0v-1.5c0-1.4,1.1-2.5,2.5-2.5c1.4,0,2.5,1.1,2.5,2.5v1.5
					C79.1-53.6,78.9-53.4,78.6-53.4C78.6-53.4,78.6-53.4,78.6-53.4z M75.1-54.4h3v-1c0-0.8-0.7-1.5-1.5-1.5c-0.8,0-1.5,0.7-1.5,1.5
					V-54.4z"/>
				<path class="st3" d="M74.1-54.4h5c0.8,0,1.5,0.7,1.5,1.5v3.5c0,0.8-0.7,1.5-1.5,1.5h-5c-0.8,0-1.5-0.7-1.5-1.5v-3.5
					C72.6-53.7,73.3-54.4,74.1-54.4z"/>
			</g>
		</g>
		<g>
			<g>
				<path class="st5" d="M43.4-22.8h-4c-0.3,0-0.5-0.2-0.5-0.5c0,0,0,0,0,0v-1.5c0-1.4,1.1-2.5,2.5-2.5c1.4,0,2.5,1.1,2.5,2.5v1.5
					C43.9-23,43.7-22.8,43.4-22.8C43.4-22.8,43.4-22.8,43.4-22.8z M39.9-23.8h3v-1c0-0.8-0.7-1.5-1.5-1.5c-0.8,0-1.5,0.7-1.5,1.5
					V-23.8z"/>
				<path class="st5" d="M38.9-23.8h5c0.8,0,1.5,0.7,1.5,1.5v3.5c0,0.8-0.7,1.5-1.5,1.5h-5c-0.8,0-1.5-0.7-1.5-1.5v-3.5
					C37.4-23.1,38.1-23.8,38.9-23.8z"/>
			</g>
			<g>
				<path class="st3" d="M78.6-22.8h-4c-0.3,0-0.5-0.2-0.5-0.5c0,0,0,0,0,0v-1.5c0-1.4,1.1-2.5,2.5-2.5c1.4,0,2.5,1.1,2.5,2.5v1.5
					C79.1-23,78.9-22.8,78.6-22.8C78.6-22.8,78.6-22.8,78.6-22.8z M75.1-23.8h3v-1c0-0.8-0.7-1.5-1.5-1.5c-0.8,0-1.5,0.7-1.5,1.5
					V-23.8z"/>
				<path class="st3" d="M74.1-23.8h5c0.8,0,1.5,0.7,1.5,1.5v3.5c0,0.8-0.7,1.5-1.5,1.5h-5c-0.8,0-1.5-0.7-1.5-1.5v-3.5
					C72.6-23.1,73.3-23.8,74.1-23.8z"/>
			</g>
		</g>
		<g>
			<g>
				<path class="st5" d="M43.4,7.8h-4c-0.3,0-0.5-0.2-0.5-0.5c0,0,0,0,0,0V5.8c0-1.4,1.1-2.5,2.5-2.5c1.4,0,2.5,1.1,2.5,2.5v1.5
					C43.9,7.6,43.7,7.8,43.4,7.8C43.4,7.8,43.4,7.8,43.4,7.8z M39.9,6.8h3v-1c0-0.8-0.7-1.5-1.5-1.5c-0.8,0-1.5,0.7-1.5,1.5V6.8z"/>
				<path class="st5" d="M38.9,6.8h5c0.8,0,1.5,0.7,1.5,1.5v3.5c0,0.8-0.7,1.5-1.5,1.5h-5c-0.8,0-1.5-0.7-1.5-1.5V8.3
					C37.4,7.4,38.1,6.8,38.9,6.8z"/>
			</g>
			<g>
				<path class="st3" d="M78.6,7.8h-4c-0.3,0-0.5-0.2-0.5-0.5c0,0,0,0,0,0V5.8c0-1.4,1.1-2.5,2.5-2.5c1.4,0,2.5,1.1,2.5,2.5v1.5
					C79.1,7.6,78.9,7.8,78.6,7.8C78.6,7.8,78.6,7.8,78.6,7.8z M75.1,6.8h3v-1c0-0.8-0.7-1.5-1.5-1.5c-0.8,0-1.5,0.7-1.5,1.5V6.8z"/>
				<path class="st3" d="M74.1,6.8h5c0.8,0,1.5,0.7,1.5,1.5v3.5c0,0.8-0.7,1.5-1.5,1.5h-5c-0.8,0-1.5-0.7-1.5-1.5V8.3
					C72.6,7.4,73.3,6.8,74.1,6.8z"/>
			</g>
		</g>
	</g>
</g>
</svg>
