<?xml version="1.0" encoding="UTF-8"?><svg id="Layer_1" xmlns="http://www.w3.org/2000/svg" viewBox="0 0 24 24"><defs><style>.cls-1{fill:#fff;}.cls-2{fill:#1f79ba;}</style></defs><path class="cls-2" d="m14.72,8.79l-4.29,4.3-1.65-1.65c-.36-.42-.99-.47-1.41-.11s-.47.99-.11,1.41c.03.04.07.08.11.11l2.35,2.36c.19.19.44.29.71.29.26,0,.51-.11.7-.29l5-5c.39-.39.39-1.02,0-1.41,0,0,0,0,0,0-.39-.39-1.02-.39-1.41,0Zm-2.72-6.79C6.48,2,2,6.48,2,12s4.48,10,10,10,10-4.48,10-10S17.52,2,12,2Zm0,18c-4.42,0-8-3.58-8-8S7.58,4,12,4s8,3.58,8,8-3.58,8-8,8Z"/><g><g><path class="cls-2" d="m7,5.79H3c-.28,0-.5-.22-.5-.5h0v-1.5c0-1.38,1.12-2.5,2.5-2.5s2.5,1.12,2.5,2.5v1.5c0,.28-.22.5-.5.5h0Zm-3.5-1h3v-1c0-.83-.67-1.5-1.5-1.5s-1.5.67-1.5,1.5v1Z"/><path class="cls-1" d="m7,5.91H3c-.34,0-.62-.28-.62-.62v-1.5c0-1.45,1.18-2.62,2.62-2.62s2.62,1.18,2.62,2.62v1.5c0,.34-.28.62-.62.62ZM5,1.41c-1.31,0-2.38,1.07-2.38,2.38v1.5c0,.21.17.38.38.38h4c.21,0,.38-.17.38-.38v-1.5c0-1.31-1.07-2.38-2.38-2.38Zm1.62,3.5h-3.25v-1.12c0-.9.73-1.62,1.62-1.62s1.62.73,1.62,1.62v1.12h.01Zm-3-.25h2.75v-.88c0-.76-.62-1.38-1.38-1.38s-1.38.62-1.38,1.38v.88h.01Z"/></g><g><rect class="cls-2" x="1" y="4.79" width="8" height="6.5" rx="1.5" ry="1.5"/><path class="cls-1" d="m7.5,11.41H2.5c-.9,0-1.62-.73-1.62-1.62v-3.5c0-.9.73-1.62,1.62-1.62h5c.9,0,1.62.73,1.62,1.62v3.5c0,.9-.73,1.62-1.62,1.62ZM2.5,4.91c-.76,0-1.38.62-1.38,1.38v3.5c0,.76.62,1.38,1.38,1.38h5c.76,0,1.38-.62,1.38-1.38v-3.5c0-.76-.62-1.38-1.38-1.38H2.5Z"/></g></g></svg>