<?xml version="1.0" encoding="UTF-8"?><svg id="Layer_1" xmlns="http://www.w3.org/2000/svg" viewBox="0 0 24 24"><defs><style>.cls-1{fill:#707070;}.cls-2{fill:#ff6359;}</style></defs><path class="cls-1" d="m18,13.18v-2.3s-.07,0-.1,0c-.63,0-1.27,0-1.9,0v2.12h-8v-3c0-2.21,1.79-4,4-4,.67,0,1.29.18,1.85.47.29-.35.57-.71.86-1.07.14-.17.28-.34.42-.51-.64-.39-1.35-.67-2.12-.8v-1.09c0-.55-.45-1-1-1s-1,.45-1,1v1.09c-2.88.49-5,2.98-5,5.91v3.18c-1.2.42-2,1.55-2,2.82v2c0,.55.45,1,1,1h3.14c.58,2.13,2.78,3.39,4.91,2.81,1.37-.37,2.44-1.44,2.81-2.81h3.14c.55,0,1-.45,1-1v-2c0-1.27-.8-2.4-2-2.82Zm-6,6.82c-.71,0-1.36-.38-1.72-1h3.44c-.36.62-1.01,1-1.72,1Zm6-3H6v-1c0-.55.45-1,1-1h10c.55,0,1,.45,1,1v1Z"/><circle class="cls-2" cx="16.82" cy="7.83" r="2.66"/></svg>