<?xml version="1.0" encoding="UTF-8"?><svg id="Layer_1" xmlns="http://www.w3.org/2000/svg" viewBox="0 0 24 24"><defs><style>.cls-1{fill:#707070;}</style></defs><path class="cls-1" d="m12,19c.55,0,1-.45,1-1s-.45-1-1-1-1,.45-1,1,.45,1,1,1Zm5,0c.55,0,1-.45,1-1s-.45-1-1-1-1,.45-1,1,.45,1,1,1Zm0-4c.55,0,1-.45,1-1s-.45-1-1-1-1,.45-1,1,.45,1,1,1Zm-5,0c.55,0,1-.45,1-1s-.45-1-1-1-1,.45-1,1,.45,1,1,1Zm7-12h-1v-1c0-.55-.45-1-1-1s-1,.45-1,1v1h-8v-1c0-.55-.45-1-1-1s-1,.45-1,1v1h-1c-1.66,0-3,1.34-3,3v14c0,1.66,1.34,3,3,3h14c1.66,0,3-1.34,3-3V6c0-1.66-1.34-3-3-3Zm1,17c0,.55-.45,1-1,1H5c-.55,0-1-.45-1-1v-9h16v9Zm0-11H4v-3c0-.55.45-1,1-1h1v1c0,.55.45,1,1,1s1-.45,1-1v-1h8v1c0,.55.45,1,1,1s1-.45,1-1v-1h1c.55,0,1,.45,1,1v3Zm-13,6c.55,0,1-.45,1-1s-.45-1-1-1-1,.45-1,1,.45,1,1,1Zm0,4c.55,0,1-.45,1-1s-.45-1-1-1-1,.45-1,1,.45,1,1,1Z"/></svg>