<?xml version="1.0" encoding="UTF-8"?><svg id="Layer_1" xmlns="http://www.w3.org/2000/svg" viewBox="0 0 24 24"><defs><style>.cls-1{fill:#1f79ba;}</style></defs><path class="cls-1" d="m10,13H3c-.55,0-1,.45-1,1v7c0,.55.45,1,1,1h7c.55,0,1-.45,1-1v-7c0-.55-.45-1-1-1Zm-1,7h-5v-5h5v5ZM21,2h-7c-.55,0-1,.45-1,1v7c0,.55.45,1,1,1h7c.55,0,1-.45,1-1V3c0-.55-.45-1-1-1Zm-1,7h-5v-5h5v5Zm1,4h-7c-.55,0-1,.45-1,1v7c0,.55.45,1,1,1h7c.55,0,1-.45,1-1v-7c0-.55-.45-1-1-1Zm-1,7h-5v-5h5v5ZM10,2H3c-.55,0-1,.45-1,1v7c0,.55.45,1,1,1h7c.55,0,1-.45,1-1V3c0-.55-.45-1-1-1Zm-1,7h-5v-5h5v5Z"/></svg>