<?xml version="1.0" encoding="UTF-8"?><svg id="Layer_1" xmlns="http://www.w3.org/2000/svg" viewBox="0 0 24 24"><defs><style>.cls-1{fill:#1f79ba;}</style></defs><path class="cls-1" d="m14.72,8.79l-4.29,4.3-1.65-1.65c-.36-.42-.99-.47-1.41-.11s-.47.99-.11,1.41c.03.04.07.08.11.11l2.35,2.36c.19.19.44.29.71.29.26,0,.51-.11.7-.29l5-5c.39-.39.39-1.02,0-1.41,0,0,0,0,0,0-.39-.39-1.02-.39-1.41,0Zm-2.72-6.79C6.48,2,2,6.48,2,12s4.48,10,10,10,10-4.48,10-10S17.52,2,12,2Zm0,18c-4.42,0-8-3.58-8-8S7.58,4,12,4s8,3.58,8,8-3.58,8-8,8Z"/></svg>