<svg xmlns="http://www.w3.org/2000/svg" width="35.199" height="35.322" viewBox="0 0 35.199 35.322">
  <path id="Path_62310" data-name="Path 62310" d="M36.714-13.617,20.839-27.728a1.855,1.855,0,0,0-2.293,0L2.671-13.617a1.715,1.715,0,0,0-.176,2.469,1.715,1.715,0,0,0,2.469.176l.529-.529V5.433A1.666,1.666,0,0,0,7.257,7.2H31.952a1.666,1.666,0,0,0,1.764-1.764h0V-11.5l.529.529a1.715,1.715,0,0,0,2.469-.176,1.705,1.705,0,0,0,0-2.469ZM14.666,3.669a5.04,5.04,0,0,1,6.7-3.175,5.154,5.154,0,0,1,3.175,3.175Zm2.293-9.7A2.713,2.713,0,0,1,19.6-8.678,2.713,2.713,0,0,1,22.25-6.032,2.713,2.713,0,0,1,19.6-3.386,2.713,2.713,0,0,1,16.959-6.032Zm13.229,9.7h-1.94a8.8,8.8,0,0,0-4.057-5.645,5.588,5.588,0,0,0,1.588-4.057A6.25,6.25,0,0,0,19.6-12.206a6.25,6.25,0,0,0-6.174,6.174h0a6.215,6.215,0,0,0,1.588,4.057,8.8,8.8,0,0,0-4.057,5.645H9.021V-14.5L19.6-23.848,30.188-14.5Z" transform="translate(-2.045 28.125)" fill="#1f79ba"/>
</svg>
