<?xml version="1.0" encoding="UTF-8"?><svg id="Layer_1" xmlns="http://www.w3.org/2000/svg" viewBox="0 0 24 24"><defs><style>.cls-1{fill:#1f79ba;}</style></defs><path class="cls-1" d="m7,16c.83,0,1.5-.67,1.5-1.5h0s0-.1,0-.15l2.79-2.79h.46l1.61,1.61v.08c0,.83.67,1.5,1.5,1.5s1.5-.67,1.5-1.5v-.08l3.64-3.67h0c.83,0,1.5-.67,1.5-1.5s-.67-1.5-1.5-1.5-1.5.67-1.5,1.5c0,.05,0,.1,0,.15l-3.61,3.61h-.16l-1.73-1.76c0-.83-.67-1.5-1.5-1.5s-1.5.67-1.5,1.5l-3,3h0c-.83,0-1.5.67-1.5,1.5s.67,1.5,1.5,1.5Zm13.5,4H3.5V3c0-.55-.45-1-1-1s-1,.45-1,1v18c0,.55.45,1,1,1h18c.55,0,1-.45,1-1s-.45-1-1-1Z"/></svg>