<svg xmlns="http://www.w3.org/2000/svg" width="35.16" height="35.159" viewBox="0 0 35.16 35.159">
  <path id="Path_62311" data-name="Path 62311" d="M19.639-59.3A17.691,17.691,0,0,0,2-41.661,17.129,17.129,0,0,0,6.586-29.843h0a17.584,17.584,0,0,0,24.871,1.058l1.058-1.058h0a17.577,17.577,0,0,0-1.058-24.871A17.13,17.13,0,0,0,19.639-59.3Zm0,31.75A14.484,14.484,0,0,1,9.761-31.43,10.652,10.652,0,0,1,23.52-37.251a10.482,10.482,0,0,1,5.821,5.821A13.74,13.74,0,0,1,19.639-27.55ZM16.111-45.189a3.538,3.538,0,0,1,3.528-3.528,3.538,3.538,0,0,1,3.528,3.528,3.538,3.538,0,0,1-3.528,3.528A3.538,3.538,0,0,1,16.111-45.189Zm15.7,10.583a15.158,15.158,0,0,0-6.879-6,6.83,6.83,0,0,0-.706-9.878,7.145,7.145,0,0,0-9.878.529,7.212,7.212,0,0,0,0,9.349,15.158,15.158,0,0,0-6.879,6,14.141,14.141,0,0,1-1.94-7.056A14.153,14.153,0,0,1,19.639-55.772,14.153,14.153,0,0,1,33.75-41.661,14.141,14.141,0,0,1,31.81-34.605Z" transform="translate(-2 59.3)" fill="#fff"/>
</svg>
