<?xml version="1.0" encoding="UTF-8"?><svg id="Layer_1" xmlns="http://www.w3.org/2000/svg" xmlns:xlink="http://www.w3.org/1999/xlink" viewBox="0 0 209 74"><defs><style>.cls-1{fill:url(#linear-gradient);}.cls-1,.cls-2{fill-rule:evenodd;}.cls-2{fill:url(#linear-gradient-2);opacity:.56;}.cls-3{clip-path:url(#clippath);}.cls-4{fill:none;}</style><clipPath id="clippath"><rect class="cls-4" width="209" height="74"/></clipPath><linearGradient id="linear-gradient" x1="4.27" y1="-7.79" x2="204.5" y2="33.3" gradientTransform="translate(0 76) scale(1 -1)" gradientUnits="userSpaceOnUse"><stop offset="0" stop-color="#83cdba"/><stop offset=".18" stop-color="#99d7da"/><stop offset=".57" stop-color="#51afe2"/><stop offset="1" stop-color="#404da1"/></linearGradient><linearGradient id="linear-gradient-2" x1="4.25" y1="-2.97" x2="204.47" y2="38.11" gradientTransform="translate(.48 77.99) rotate(-1.08) scale(1 -1)" xlink:href="#linear-gradient"/></defs><g class="cls-3"><g><path class="cls-1" d="m128.39,55.42c-30.72.43-68.84,2.16-110.03,8.26-3.83.57-4.77-3.18-.94-3.75,41.31-6.12,79.78-10.07,110.88-10.51,15.55-.22,29.33.44,40.74,2.16,11.34,1.71,20.65,4.53,27,8.83,1.37.93,1.73,2.79.8,4.17-.93,1.37-2.79,1.73-4.17.8-5.25-3.56-13.5-6.2-24.53-7.87-10.97-1.66-24.39-2.31-39.76-2.09Z"/><path class="cls-2" d="m128.35,50.19c-30.71,1.01-68.79,3.45-109.85,10.32-3.82.64-4.83-3.09-1.01-3.73,41.19-6.89,79.58-11.56,110.66-12.59,15.54-.51,29.33-.12,40.77,1.39,11.37,1.5,20.73,4.14,27.16,8.32,1.39.9,1.78,2.76.88,4.15-.9,1.39-2.76,1.78-4.15.88-5.31-3.46-13.61-5.94-24.68-7.4-11-1.45-24.43-1.85-39.79-1.35Z"/></g></g></svg>