<svg width="175" height="97" viewBox="0 0 175 97" version="1.1" xmlns="http://www.w3.org/2000/svg"><g id="V2" stroke="none" stroke-width="1" fill="none" fill-rule="evenodd"><g id="Mass-FinTech-Homepage-v2" transform="translate(-56 -83)" fill-rule="nonzero"><g id="header" transform="translate(0 36)"><g id="Group-6" transform="translate(56 47)"><g id="Group-4" transform="translate(72.468 20.196)" fill="#1E1E20"><g id="Group" transform="translate(.37 .315)"><path d="M5.472 22.137L5.614 5.1l4.853 16.683h6.02L21.34 5.065l.107 17.072h5.348L26.051 0h-7.863l-4.604 16.612L8.979 0h-7.97L.23 22.137h5.242zm29.222.532c2.267 0 3.577-1.134 4.746-2.515h.106c.744 1.806 2.515 2.763 6.092 2.302l.532-3.896c-1.134-.106-1.346-.213-1.346-1.346l.035-4.888c.071-4.604-1.806-7.19-7.509-7.19-3.117 0-5.844 1.027-7.58 1.948l1.134 4.002c1.912-.956 3.896-1.664 5.596-1.664 2.02 0 2.905.779 2.905 2.514v.32c-7.403.212-9.74 2.727-9.74 5.844 0 2.55 2.195 4.569 5.029 4.569zm2.16-3.613c-1.204 0-2.054-.709-2.054-1.771 0-1.452 1.24-2.09 4.605-2.48v3.153c-.567.637-1.453 1.098-2.55 1.098zm17.675 3.613c4.852 0 7.473-2.444 7.473-5.42 0-3.294-2.302-4.569-6.198-5.419-1.806-.39-2.834-.744-2.834-1.63 0-.814.709-1.239 2.02-1.239 1.558 0 3.79.567 5.666 1.488l1.098-3.896c-1.629-.78-4.498-1.417-6.694-1.417-4.569 0-7.26 2.196-7.26 5.277 0 3.224 2.443 4.64 6.268 5.384 1.878.425 2.799.78 2.799 1.7 0 .85-.78 1.346-2.232 1.346-1.913 0-4.109-.566-6.021-1.558l-1.063 3.931c1.736.921 4.711 1.453 6.978 1.453zm16.293 0c4.852 0 7.474-2.444 7.474-5.42 0-3.294-2.303-4.569-6.199-5.419-1.806-.39-2.833-.744-2.833-1.63 0-.814.708-1.239 2.018-1.239 1.559 0 3.79.567 5.668 1.488l1.098-3.896c-1.63-.78-4.499-1.417-6.695-1.417-4.569 0-7.26 2.196-7.26 5.277 0 3.224 2.443 4.64 6.269 5.384 1.877.425 2.798.78 2.798 1.7 0 .85-.78 1.346-2.232 1.346-1.912 0-4.108-.566-6.021-1.558l-1.063 3.931c1.736.921 4.711 1.453 6.978 1.453zm12.238-.284c1.983 0 3.329-1.31 3.329-3.223 0-1.948-1.346-3.223-3.33-3.223-2.018 0-3.364 1.275-3.364 3.223 0 1.913 1.346 3.223 3.365 3.223zM3.56 47.817v-9.67h8.925v-2.09H3.56v-8.252h10.767v-2.126H1.293v22.138H3.56zm15.549-19.942c.992 0 1.488-.779 1.488-1.629 0-.815-.496-1.558-1.488-1.558s-1.488.743-1.488 1.558c0 .85.496 1.63 1.488 1.63zm1.098 19.942V31.134l-2.196.46v16.223h2.196zm7.367 0v-12.29c1.346-1.347 3.153-2.303 4.924-2.303 2.444 0 3.577 1.275 3.577 4.109v10.484h2.196V36.695c0-3.542-1.913-5.561-5.171-5.561-1.7 0-3.825.956-5.526 2.657v-2.657l-2.196.46v16.223h2.196zm20.154.531c1.17 0 2.48-.319 3.613-.85l-.39-1.913c-.991.425-2.054.78-3.116.78-1.7 0-2.444-.992-2.374-3.047l.248-9.705h5.384l.106-1.948H45.78l.106-3.79h-2.09l-.106 3.684-2.444.567-.106 1.381 2.48.142-.248 9.599c-.107 3.4 1.275 5.1 4.356 5.1zm13.956-.07c2.019 0 3.825-.532 5.206-1.382l-.425-2.02c-1.24.816-2.94 1.347-4.71 1.347-3.4 0-5.597-2.621-5.668-6.27v-.177l10.98-.07c.213-.709.355-1.736.355-2.586 0-3.648-2.338-5.986-5.915-5.986-4.393 0-7.651 3.613-7.651 8.713 0 4.924 3.152 8.43 7.828 8.43zM56.229 38.04c.354-2.692 2.231-4.923 5.136-4.923 2.55 0 3.896 1.7 3.896 4.18 0 .176 0 .53-.035.707l-8.997.036zm22.208 10.236c1.877 0 3.648-.531 5.03-1.381l-.46-2.02a8.4 8.4 0 01-4.499 1.347c-3.436 0-5.738-2.586-5.738-6.553 0-3.86 2.196-6.482 5.703-6.482 1.7 0 3.258.496 4.498 1.31l.567-1.983c-1.382-.885-3.082-1.381-5.065-1.381-4.605 0-7.97 3.542-7.97 8.607 0 5.03 3.046 8.536 7.934 8.536zm11.3-.46v-12.29c1.345-1.347 3.152-2.303 5.029-2.303 2.338 0 3.47 1.275 3.47 4.109v10.484h2.197V36.695c0-3.542-1.913-5.561-5.065-5.561-1.806 0-3.932.886-5.632 2.586V23.483l-2.196.46v23.874h2.196zM3.56 73.497V63.401h12.963v10.094h2.267V51.36h-2.267v9.988H3.56V51.36H1.293v22.137H3.56zm31.17.46l2.195-.46V57.273H34.73v12.29c-1.31 1.347-3.117 2.303-4.994 2.303-2.373 0-3.507-1.275-3.507-4.109V57.274h-2.196v11.122c0 3.542 1.948 5.56 5.1 5.56 1.807 0 3.932-.92 5.597-2.62v2.62zm7.296.07l2.196-.956c1.062.496 2.656.886 3.967.886 4.675 0 8.005-3.684 8.005-8.784 0-4.853-2.799-8.253-7.084-8.253-2.09 0-3.79 1.027-4.888 2.054v-9.811l-2.196.46v24.404zm6.269-2.054c-1.559 0-3.082-.496-4.073-1.275v-9.953c1.169-1.063 2.692-1.806 4.463-1.806 3.223 0 5.242 2.656 5.242 6.34 0 3.896-2.16 6.694-5.632 6.694z" id="MassFintechHub"/></g></g><g id="Group-400"><path d="M37.17 6.579c-13.262 0-24.013 10.603-24.013 23.683 0-9.522 7.827-17.24 17.48-17.24 9.655 0 17.481 7.718 17.481 17.24h13.064c0-13.08-10.75-23.683-24.012-23.683" id="Fill-394" fill="#1D7AA6"/><path d="M48.098 30.59c0 9.67-7.838 17.508-17.507 17.508-9.67 0-17.507-7.838-17.507-17.507 0-13.282 10.767-24.05 24.049-24.05 13.281 0 24.049 10.768 24.049 24.05C61.182 13.696 47.486 0 30.591 0 13.696 0 0 13.696 0 30.59c0 16.896 13.696 30.592 30.59 30.592 16.896 0 30.592-13.696 30.592-30.591H48.098z" id="Fill-396" fill="#2DADEB"/><path d="M61.182 30.29c0 17.06-13.696 30.892-30.591 30.892C13.696 61.182 0 47.351 0 30.289c0 13.413 10.768 24.287 24.05 24.287 13.281 0 24.048-10.874 24.048-24.287 0-3.649 2.93-6.606 6.542-6.606 3.613 0 6.542 2.957 6.542 6.606" id="Fill-398" fill="#7ACDF4"/></g></g></g></g></g></svg>